# MagicaVoxel @ Ephtracy

# group
o 

# material
mtllib grass-montain4.mtl
usemtl palette

# normals
vn -1 0 0
vn 1 0 0
vn 0 0 1
vn 0 0 -1
vn 0 -1 0
vn 0 1 0

# texcoords
vt 0.974609 0.5
vt 0.978516 0.5

# verts
v -0.5 0 -0.3
v -0.5 0 -0.4
v -0.5 0.1 -0.3
v -0.5 0.1 -0.4
v -0.4 0 0.2
v -0.4 0 0.1
v -0.4 0 -7.45058e-009
v -0.4 0 -0.1
v -0.4 0 -0.2
v -0.4 0 -0.3
v -0.4 0.1 0.2
v -0.4 0.1 0.1
v -0.4 0.1 -0.3
v -0.4 0.1 -0.4
v -0.4 0.2 -7.45058e-009
v -0.4 0.2 -0.1
v -0.4 0.2 -0.2
v -0.4 0.2 -0.4
v -0.3 0 0.4
v -0.3 0 0.3
v -0.3 0 0.2
v -0.3 0.1 0.3
v -0.3 0.1 0.2
v -0.3 0.3 0.4
v -0.3 0.3 0.3
v -0.2 0 0.2
v -0.2 0 0.1
v -0.2 0 -0.4
v -0.2 0 -0.5
v -0.2 0.1 0.2
v -0.2 0.1 0.1
v -0.2 0.2 -0.4
v -0.2 0.3 -0.4
v -0.2 0.3 -0.5
v -0.1 0 -7.45058e-009
v -0.1 0 -0.1
v -0.1 0.1 -7.45058e-009
v -0.1 0.1 -0.1
v -1.49012e-008 0 0.4
v -1.49012e-008 0 0.3
v -1.49012e-008 0.2 0.4
v -1.49012e-008 0.2 0.3
v 0.1 0 0.1
v 0.1 0 -7.45058e-009
v 0.1 0 -0.2
v 0.1 0 -0.3
v 0.1 0 -0.4
v 0.1 0.1 -0.2
v 0.1 0.1 -0.3
v 0.1 0.2 -0.3
v 0.1 0.2 -0.4
v 0.1 0.4 0.1
v 0.1 0.4 -7.45058e-009
v 0.2 0 0.4
v 0.2 0 0.3
v 0.2 0 0.1
v 0.2 0.1 0.2
v 0.2 0.1 0.1
v 0.2 0.1 -0.2
v 0.2 0.1 -0.3
v 0.2 0.2 0.4
v 0.2 0.2 0.3
v 0.2 0.2 0.2
v 0.2 0.2 -0.2
v 0.2 0.2 -0.3
v 0.2 0.3 0.3
v 0.2 0.3 0.2
v 0.3 0.1 0.2
v 0.3 0.1 0.1
v 0.3 0.2 0.2
v 0.3 0.2 0.1
v 0.4 0 -7.45058e-009
v 0.4 0 -0.1
v 0.4 0 -0.3
v 0.4 0 -0.4
v 0.4 0.1 -0.3
v 0.4 0.1 -0.4
v 0.4 0.2 -7.45058e-009
v 0.4 0.2 -0.1
v -0.3 0 0.2
v -0.3 0 0.1
v -0.3 0 -7.45058e-009
v -0.3 0 -0.1
v -0.3 0.1 0.2
v -0.3 0.1 0.1
v -0.3 0.1 -0.2
v -0.3 0.1 -0.3
v -0.3 0.2 -7.45058e-009
v -0.3 0.2 -0.1
v -0.3 0.2 -0.2
v -0.3 0.2 -0.3
v -0.2 0 0.4
v -0.2 0 0.3
v -0.2 0 -0.3
v -0.2 0 -0.4
v -0.2 0.1 0.3
v -0.2 0.1 -0.3
v -0.2 0.2 -0.3
v -0.2 0.2 -0.4
v -0.2 0.3 0.4
v -0.2 0.3 0.3
v -0.1 0 0.3
v -0.1 0 0.1
v -0.1 0 -0.2
v -0.1 0 -0.3
v -0.1 0 -0.4
v -0.1 0 -0.5
v -0.1 0.1 0.3
v -0.1 0.1 0.1
v -0.1 0.1 -0.2
v -0.1 0.1 -0.3
v -0.1 0.3 -0.4
v -0.1 0.3 -0.5
v -1.49012e-008 0 -7.45058e-009
v -1.49012e-008 0 -0.1
v -1.49012e-008 0.1 -7.45058e-009
v -1.49012e-008 0.1 -0.1
v 0.1 0 0.4
v 0.1 0 0.3
v 0.1 0.2 0.4
v 0.1 0.2 0.3
v 0.2 0 0.1
v 0.2 0 -7.45058e-009
v 0.2 0 -0.3
v 0.2 0 -0.4
v 0.2 0.1 0.1
v 0.2 0.2 -0.3
v 0.2 0.2 -0.4
v 0.2 0.4 0.1
v 0.2 0.4 -7.45058e-009
v 0.3 0 0.4
v 0.3 0 0.3
v 0.3 0 -0.2
v 0.3 0 -0.3
v 0.3 0.2 0.4
v 0.3 0.2 0.3
v 0.3 0.2 0.2
v 0.3 0.2 -0.2
v 0.3 0.2 -0.3
v 0.3 0.3 0.3
v 0.3 0.3 0.2
v 0.4 0 0.3
v 0.4 0 0.1
v 0.4 0.2 0.3
v 0.4 0.2 0.1
v 0.5 0 -7.45058e-009
v 0.5 0 -0.1
v 0.5 0 -0.3
v 0.5 0 -0.4
v 0.5 0.1 -0.3
v 0.5 0.1 -0.4
v 0.5 0.2 -7.45058e-009
v 0.5 0.2 -0.1
v -0.3 0 0.4
v -0.3 0.3 0.4
v -0.2 0 0.4
v -0.2 0.3 0.4
v -1.49012e-008 0 0.4
v -1.49012e-008 0.2 0.4
v 0.1 0 0.4
v 0.1 0.2 0.4
v 0.2 0 0.4
v 0.2 0.2 0.4
v 0.3 0 0.4
v 0.3 0.2 0.4
v -0.2 0 0.3
v -0.2 0.1 0.3
v -0.1 0 0.3
v -0.1 0.1 0.3
v 0.2 0.2 0.3
v 0.2 0.3 0.3
v 0.3 0 0.3
v 0.3 0.2 0.3
v 0.3 0.3 0.3
v 0.4 0 0.3
v 0.4 0.2 0.3
v -0.4 0 0.2
v -0.4 0.1 0.2
v -0.3 0 0.2
v -0.3 0.1 0.2
v 0.1 0 0.1
v 0.1 0.4 0.1
v 0.2 0 0.1
v 0.2 0.1 0.1
v 0.2 0.4 0.1
v -0.4 0 -7.45058e-009
v -0.4 0.2 -7.45058e-009
v -0.3 0 -7.45058e-009
v -0.3 0.2 -7.45058e-009
v -0.1 0 -7.45058e-009
v -0.1 0.1 -7.45058e-009
v -1.49012e-008 0 -7.45058e-009
v -1.49012e-008 0.1 -7.45058e-009
v 0.4 0 -7.45058e-009
v 0.4 0.2 -7.45058e-009
v 0.5 0 -7.45058e-009
v 0.5 0.2 -7.45058e-009
v -0.4 0 -0.2
v -0.4 0.2 -0.2
v -0.3 0.1 -0.2
v -0.3 0.2 -0.2
v -0.2 0 -0.2
v -0.2 0.1 -0.2
v -0.1 0 -0.2
v -0.1 0.1 -0.2
v 0.1 0 -0.2
v 0.1 0.1 -0.2
v 0.2 0.1 -0.2
v 0.2 0.2 -0.2
v 0.3 0 -0.2
v 0.3 0.2 -0.2
v -0.5 0 -0.3
v -0.5 0.1 -0.3
v -0.4 0 -0.3
v -0.4 0.1 -0.3
v -0.3 0.1 -0.3
v -0.3 0.2 -0.3
v -0.2 0.1 -0.3
v -0.2 0.2 -0.3
v 0.1 0.1 -0.3
v 0.1 0.2 -0.3
v 0.2 0.1 -0.3
v 0.2 0.2 -0.3
v 0.4 0 -0.3
v 0.4 0.1 -0.3
v 0.5 0 -0.3
v 0.5 0.1 -0.3
v -0.2 0 -0.4
v -0.2 0.2 -0.4
v -0.2 0.3 -0.4
v -0.1 0 -0.4
v -0.1 0.3 -0.4
v -0.3 0.1 0.3
v -0.3 0.3 0.3
v -0.2 0.1 0.3
v -0.2 0.3 0.3
v -1.49012e-008 0 0.3
v -1.49012e-008 0.2 0.3
v 0.1 0 0.3
v 0.1 0.2 0.3
v -0.3 0 0.2
v -0.3 0.1 0.2
v -0.2 0 0.2
v -0.2 0.1 0.2
v 0.2 0.1 0.2
v 0.2 0.2 0.2
v 0.2 0.3 0.2
v 0.3 0.1 0.2
v 0.3 0.2 0.2
v 0.3 0.3 0.2
v -0.4 0 0.1
v -0.4 0.1 0.1
v -0.3 0 0.1
v -0.3 0.1 0.1
v -0.2 0 0.1
v -0.2 0.1 0.1
v -0.1 0 0.1
v -0.1 0.1 0.1
v 0.2 0 0.1
v 0.2 0.1 0.1
v 0.3 0.1 0.1
v 0.3 0.2 0.1
v 0.4 0 0.1
v 0.4 0.2 0.1
v 0.1 0 -7.45058e-009
v 0.1 0.4 -7.45058e-009
v 0.2 0 -7.45058e-009
v 0.2 0.4 -7.45058e-009
v -0.4 0 -0.1
v -0.4 0.2 -0.1
v -0.3 0 -0.1
v -0.3 0.2 -0.1
v -0.1 0 -0.1
v -0.1 0.1 -0.1
v -1.49012e-008 0 -0.1
v -1.49012e-008 0.1 -0.1
v 0.4 0 -0.1
v 0.4 0.2 -0.1
v 0.5 0 -0.1
v 0.5 0.2 -0.1
v -0.2 0 -0.3
v -0.2 0.1 -0.3
v -0.1 0 -0.3
v -0.1 0.1 -0.3
v 0.2 0 -0.3
v 0.2 0.2 -0.3
v 0.3 0 -0.3
v 0.3 0.2 -0.3
v -0.5 0 -0.4
v -0.5 0.1 -0.4
v -0.4 0 -0.4
v -0.4 0.1 -0.4
v -0.4 0.2 -0.4
v -0.2 0 -0.4
v -0.2 0.2 -0.4
v 0.1 0 -0.4
v 0.1 0.2 -0.4
v 0.2 0 -0.4
v 0.2 0.2 -0.4
v 0.4 0 -0.4
v 0.4 0.1 -0.4
v 0.5 0 -0.4
v 0.5 0.1 -0.4
v -0.2 0 -0.5
v -0.2 0.3 -0.5
v -0.1 0 -0.5
v -0.1 0.3 -0.5
v -0.3 0 0.4
v -0.2 0 0.4
v -1.49012e-008 0 0.4
v 0.1 0 0.4
v 0.2 0 0.4
v 0.3 0 0.4
v -0.3 0 0.3
v -0.2 0 0.3
v -0.1 0 0.3
v -1.49012e-008 0 0.3
v 0.1 0 0.3
v 0.2 0 0.3
v 0.3 0 0.3
v 0.4 0 0.3
v -0.4 0 0.2
v -0.3 0 0.2
v -0.2 0 0.2
v -0.4 0 0.1
v -0.3 0 0.1
v -0.2 0 0.1
v -0.1 0 0.1
v 0.1 0 0.1
v 0.2 0 0.1
v 0.4 0 0.1
v -0.4 0 -7.45058e-009
v -0.3 0 -7.45058e-009
v -0.1 0 -7.45058e-009
v -1.49012e-008 0 -7.45058e-009
v 0.1 0 -7.45058e-009
v 0.2 0 -7.45058e-009
v 0.4 0 -7.45058e-009
v 0.5 0 -7.45058e-009
v -0.4 0 -0.1
v -0.3 0 -0.1
v -0.1 0 -0.1
v -1.49012e-008 0 -0.1
v 0.4 0 -0.1
v 0.5 0 -0.1
v -0.4 0 -0.2
v -0.2 0 -0.2
v -0.1 0 -0.2
v 0.1 0 -0.2
v 0.3 0 -0.2
v -0.5 0 -0.3
v -0.4 0 -0.3
v -0.2 0 -0.3
v -0.1 0 -0.3
v 0.1 0 -0.3
v 0.2 0 -0.3
v 0.3 0 -0.3
v 0.4 0 -0.3
v 0.5 0 -0.3
v -0.5 0 -0.4
v -0.4 0 -0.4
v -0.2 0 -0.4
v -0.1 0 -0.4
v 0.1 0 -0.4
v 0.2 0 -0.4
v 0.4 0 -0.4
v 0.5 0 -0.4
v -0.2 0 -0.5
v -0.1 0 -0.5
v -0.3 0.1 0.3
v -0.2 0.1 0.3
v -0.1 0.1 0.3
v -0.4 0.1 0.2
v -0.3 0.1 0.2
v -0.2 0.1 0.2
v 0.2 0.1 0.2
v 0.3 0.1 0.2
v -0.4 0.1 0.1
v -0.3 0.1 0.1
v -0.2 0.1 0.1
v -0.1 0.1 0.1
v 0.2 0.1 0.1
v 0.3 0.1 0.1
v -0.1 0.1 -7.45058e-009
v -1.49012e-008 0.1 -7.45058e-009
v -0.1 0.1 -0.1
v -1.49012e-008 0.1 -0.1
v -0.3 0.1 -0.2
v -0.2 0.1 -0.2
v -0.1 0.1 -0.2
v 0.1 0.1 -0.2
v 0.2 0.1 -0.2
v -0.5 0.1 -0.3
v -0.4 0.1 -0.3
v -0.3 0.1 -0.3
v -0.2 0.1 -0.3
v -0.1 0.1 -0.3
v 0.1 0.1 -0.3
v 0.2 0.1 -0.3
v 0.4 0.1 -0.3
v 0.5 0.1 -0.3
v -0.5 0.1 -0.4
v -0.4 0.1 -0.4
v 0.4 0.1 -0.4
v 0.5 0.1 -0.4
v -1.49012e-008 0.2 0.4
v 0.1 0.2 0.4
v 0.2 0.2 0.4
v 0.3 0.2 0.4
v -1.49012e-008 0.2 0.3
v 0.1 0.2 0.3
v 0.2 0.2 0.3
v 0.3 0.2 0.3
v 0.4 0.2 0.3
v 0.3 0.2 0.2
v 0.3 0.2 0.1
v 0.4 0.2 0.1
v -0.4 0.2 -7.45058e-009
v -0.3 0.2 -7.45058e-009
v 0.4 0.2 -7.45058e-009
v 0.5 0.2 -7.45058e-009
v -0.4 0.2 -0.1
v -0.3 0.2 -0.1
v 0.4 0.2 -0.1
v 0.5 0.2 -0.1
v -0.4 0.2 -0.2
v -0.3 0.2 -0.2
v 0.2 0.2 -0.2
v 0.3 0.2 -0.2
v -0.3 0.2 -0.3
v -0.2 0.2 -0.3
v 0.1 0.2 -0.3
v 0.2 0.2 -0.3
v 0.3 0.2 -0.3
v -0.4 0.2 -0.4
v -0.2 0.2 -0.4
v 0.1 0.2 -0.4
v 0.2 0.2 -0.4
v -0.3 0.3 0.4
v -0.2 0.3 0.4
v -0.3 0.3 0.3
v -0.2 0.3 0.3
v 0.2 0.3 0.3
v 0.3 0.3 0.3
v 0.2 0.3 0.2
v 0.3 0.3 0.2
v -0.2 0.3 -0.4
v -0.1 0.3 -0.4
v -0.2 0.3 -0.5
v -0.1 0.3 -0.5
v 0.1 0.4 0.1
v 0.2 0.4 0.1
v 0.1 0.4 -7.45058e-009
v 0.2 0.4 -7.45058e-009

# faces
f 3/1/1 2/1/1 1/1/1
f 4/1/1 2/1/1 3/1/1
f 11/1/1 6/1/1 5/1/1
f 12/1/1 6/1/1 11/1/1
f 13/2/1 10/2/1 9/2/1
f 15/1/1 8/1/1 7/1/1
f 16/1/1 8/1/1 15/1/1
f 17/2/1 14/2/1 13/2/1
f 17/2/1 13/2/1 9/2/1
f 18/2/1 14/2/1 17/2/1
f 22/1/1 20/1/1 19/1/1
f 22/2/1 21/2/1 20/2/1
f 23/2/1 21/2/1 22/2/1
f 24/1/1 22/1/1 19/1/1
f 25/1/1 22/1/1 24/1/1
f 30/2/1 27/2/1 26/2/1
f 31/2/1 27/2/1 30/2/1
f 32/1/1 29/1/1 28/1/1
f 33/1/1 29/1/1 32/1/1
f 34/1/1 29/1/1 33/1/1
f 37/1/1 36/1/1 35/1/1
f 38/1/1 36/1/1 37/1/1
f 41/1/1 40/1/1 39/1/1
f 42/1/1 40/1/1 41/1/1
f 48/2/1 46/2/1 45/2/1
f 49/1/1 47/1/1 46/1/1
f 49/2/1 46/2/1 48/2/1
f 50/1/1 47/1/1 49/1/1
f 51/1/1 47/1/1 50/1/1
f 52/1/1 44/1/1 43/1/1
f 53/1/1 44/1/1 52/1/1
f 57/2/1 56/2/1 55/2/1
f 58/2/1 56/2/1 57/2/1
f 61/1/1 55/1/1 54/1/1
f 62/2/1 57/2/1 55/2/1
f 62/1/1 55/1/1 61/1/1
f 63/2/1 57/2/1 62/2/1
f 64/2/1 60/2/1 59/2/1
f 65/2/1 60/2/1 64/2/1
f 66/1/1 63/1/1 62/1/1
f 67/1/1 63/1/1 66/1/1
f 70/2/1 69/2/1 68/2/1
f 71/2/1 69/2/1 70/2/1
f 76/1/1 75/1/1 74/1/1
f 77/1/1 75/1/1 76/1/1
f 78/1/1 73/1/1 72/1/1
f 79/1/1 73/1/1 78/1/1
f 80/1/2 81/1/2 84/1/2
f 84/1/2 81/1/2 85/1/2
f 82/1/2 83/1/2 88/1/2
f 88/1/2 83/1/2 89/1/2
f 86/2/2 87/2/2 90/2/2
f 90/2/2 87/2/2 91/2/2
f 92/1/2 93/1/2 96/1/2
f 94/2/2 95/2/2 97/2/2
f 97/2/2 95/2/2 98/2/2
f 98/2/2 95/2/2 99/2/2
f 92/1/2 96/1/2 100/1/2
f 100/1/2 96/1/2 101/1/2
f 102/2/2 103/2/2 108/2/2
f 108/2/2 103/2/2 109/2/2
f 104/1/2 105/1/2 110/1/2
f 110/1/2 105/1/2 111/1/2
f 106/1/2 107/1/2 112/1/2
f 112/1/2 107/1/2 113/1/2
f 114/1/2 115/1/2 116/1/2
f 116/1/2 115/1/2 117/1/2
f 118/1/2 119/1/2 120/1/2
f 120/1/2 119/1/2 121/1/2
f 122/1/2 123/1/2 126/1/2
f 124/1/2 125/1/2 127/1/2
f 127/1/2 125/1/2 128/1/2
f 126/1/2 123/1/2 129/1/2
f 129/1/2 123/1/2 130/1/2
f 131/1/2 132/1/2 135/1/2
f 135/1/2 132/1/2 136/1/2
f 133/2/2 134/2/2 138/2/2
f 138/2/2 134/2/2 139/2/2
f 136/1/2 137/1/2 140/1/2
f 140/1/2 137/1/2 141/1/2
f 142/2/2 143/2/2 144/2/2
f 144/2/2 143/2/2 145/2/2
f 148/1/2 149/1/2 150/1/2
f 150/1/2 149/1/2 151/1/2
f 146/1/2 147/1/2 152/1/2
f 152/1/2 147/1/2 153/1/2
f 156/1/3 155/1/3 154/1/3
f 157/1/3 155/1/3 156/1/3
f 160/1/3 159/1/3 158/1/3
f 161/1/3 159/1/3 160/1/3
f 164/1/3 163/1/3 162/1/3
f 165/1/3 163/1/3 164/1/3
f 168/2/3 167/2/3 166/2/3
f 169/2/3 167/2/3 168/2/3
f 173/1/3 171/1/3 170/1/3
f 174/1/3 171/1/3 173/1/3
f 175/2/3 173/2/3 172/2/3
f 176/2/3 173/2/3 175/2/3
f 179/1/3 178/1/3 177/1/3
f 180/1/3 178/1/3 179/1/3
f 183/1/3 182/1/3 181/1/3
f 184/1/3 182/1/3 183/1/3
f 185/1/3 182/1/3 184/1/3
f 188/1/3 187/1/3 186/1/3
f 189/1/3 187/1/3 188/1/3
f 192/1/3 191/1/3 190/1/3
f 193/1/3 191/1/3 192/1/3
f 196/1/3 195/1/3 194/1/3
f 197/1/3 195/1/3 196/1/3
f 200/2/3 199/2/3 198/2/3
f 201/2/3 199/2/3 200/2/3
f 202/2/3 200/2/3 198/2/3
f 203/2/3 200/2/3 202/2/3
f 204/1/3 203/1/3 202/1/3
f 205/1/3 203/1/3 204/1/3
f 208/2/3 207/2/3 206/2/3
f 210/2/3 208/2/3 206/2/3
f 210/2/3 209/2/3 208/2/3
f 211/2/3 209/2/3 210/2/3
f 214/1/3 213/1/3 212/1/3
f 215/1/3 213/1/3 214/1/3
f 218/2/3 217/2/3 216/2/3
f 219/2/3 217/2/3 218/2/3
f 222/1/3 221/1/3 220/1/3
f 223/1/3 221/1/3 222/1/3
f 226/1/3 225/1/3 224/1/3
f 227/1/3 225/1/3 226/1/3
f 231/1/3 229/1/3 228/1/3
f 231/1/3 230/1/3 229/1/3
f 232/1/3 230/1/3 231/1/3
f 233/1/4 234/1/4 235/1/4
f 235/1/4 234/1/4 236/1/4
f 237/1/4 238/1/4 239/1/4
f 239/1/4 238/1/4 240/1/4
f 241/2/4 242/2/4 243/2/4
f 243/2/4 242/2/4 244/2/4
f 245/2/4 246/2/4 248/2/4
f 246/1/4 247/1/4 249/1/4
f 248/2/4 246/2/4 249/2/4
f 249/1/4 247/1/4 250/1/4
f 251/1/4 252/1/4 253/1/4
f 253/1/4 252/1/4 254/1/4
f 255/2/4 256/2/4 257/2/4
f 257/2/4 256/2/4 258/2/4
f 259/2/4 260/2/4 261/2/4
f 259/2/4 261/2/4 263/2/4
f 261/2/4 262/2/4 263/2/4
f 263/2/4 262/2/4 264/2/4
f 265/1/4 266/1/4 267/1/4
f 267/1/4 266/1/4 268/1/4
f 269/1/4 270/1/4 271/1/4
f 271/1/4 270/1/4 272/1/4
f 273/1/4 274/1/4 275/1/4
f 275/1/4 274/1/4 276/1/4
f 277/1/4 278/1/4 279/1/4
f 279/1/4 278/1/4 280/1/4
f 281/1/4 282/1/4 283/1/4
f 283/1/4 282/1/4 284/1/4
f 285/2/4 286/2/4 287/2/4
f 287/2/4 286/2/4 288/2/4
f 289/1/4 290/1/4 291/1/4
f 291/1/4 290/1/4 292/1/4
f 291/2/4 292/2/4 294/2/4
f 292/2/4 293/2/4 294/2/4
f 294/2/4 293/2/4 295/2/4
f 296/1/4 297/1/4 298/1/4
f 298/1/4 297/1/4 299/1/4
f 300/1/4 301/1/4 302/1/4
f 302/1/4 301/1/4 303/1/4
f 304/1/4 305/1/4 306/1/4
f 306/1/4 305/1/4 307/1/4
f 314/1/5 309/1/5 308/1/5
f 315/1/5 309/1/5 314/1/5
f 317/1/5 311/1/5 310/1/5
f 318/1/5 311/1/5 317/1/5
f 319/1/5 313/1/5 312/1/5
f 320/1/5 313/1/5 319/1/5
f 323/2/5 316/2/5 315/2/5
f 323/2/5 315/2/5 314/2/5
f 324/2/5 316/2/5 323/2/5
f 325/1/5 323/1/5 322/1/5
f 326/1/5 323/1/5 325/1/5
f 327/2/5 316/2/5 324/2/5
f 328/2/5 316/2/5 327/2/5
f 330/2/5 321/2/5 320/2/5
f 330/2/5 320/2/5 319/2/5
f 331/2/5 321/2/5 330/2/5
f 336/1/5 330/1/5 329/1/5
f 337/1/5 330/1/5 336/1/5
f 340/1/5 333/1/5 332/1/5
f 341/1/5 333/1/5 340/1/5
f 342/1/5 335/1/5 334/1/5
f 343/1/5 335/1/5 342/1/5
f 344/1/5 339/1/5 338/1/5
f 345/1/5 339/1/5 344/1/5
f 352/2/5 347/2/5 346/2/5
f 353/1/5 348/1/5 347/1/5
f 353/2/5 347/2/5 352/2/5
f 354/1/5 348/1/5 353/1/5
f 355/2/5 350/2/5 349/2/5
f 356/2/5 350/2/5 355/2/5
f 357/2/5 350/2/5 356/2/5
f 360/1/5 352/1/5 351/1/5
f 361/2/5 353/2/5 352/2/5
f 361/1/5 352/1/5 360/1/5
f 362/2/5 353/2/5 361/2/5
f 364/1/5 356/1/5 355/1/5
f 365/1/5 356/1/5 364/1/5
f 366/1/5 359/1/5 358/1/5
f 367/1/5 359/1/5 366/1/5
f 368/1/5 363/1/5 362/1/5
f 369/1/5 363/1/5 368/1/5
f 370/2/6 371/2/6 374/2/6
f 371/2/6 372/2/6 374/2/6
f 374/2/6 372/2/6 375/2/6
f 373/1/6 374/1/6 378/1/6
f 378/1/6 374/1/6 379/1/6
f 375/2/6 372/2/6 380/2/6
f 380/2/6 372/2/6 381/2/6
f 376/2/6 377/2/6 382/2/6
f 382/2/6 377/2/6 383/2/6
f 384/1/6 385/1/6 386/1/6
f 386/1/6 385/1/6 387/1/6
f 388/2/6 389/2/6 395/2/6
f 389/1/6 390/1/6 396/1/6
f 395/2/6 389/2/6 396/2/6
f 396/1/6 390/1/6 397/1/6
f 391/2/6 392/2/6 398/2/6
f 398/2/6 392/2/6 399/2/6
f 393/1/6 394/1/6 402/1/6
f 402/1/6 394/1/6 403/1/6
f 400/1/6 401/1/6 404/1/6
f 404/1/6 401/1/6 405/1/6
f 406/1/6 407/1/6 410/1/6
f 410/1/6 407/1/6 411/1/6
f 408/1/6 409/1/6 412/1/6
f 412/1/6 409/1/6 413/1/6
f 413/2/6 414/2/6 415/2/6
f 415/2/6 414/2/6 416/2/6
f 416/2/6 414/2/6 417/2/6
f 418/1/6 419/1/6 422/1/6
f 422/1/6 419/1/6 423/1/6
f 420/1/6 421/1/6 424/1/6
f 424/1/6 421/1/6 425/1/6
f 426/2/6 427/2/6 430/2/6
f 428/2/6 429/2/6 433/2/6
f 433/2/6 429/2/6 434/2/6
f 430/2/6 431/2/6 435/2/6
f 426/2/6 430/2/6 435/2/6
f 435/2/6 431/2/6 436/2/6
f 432/1/6 433/1/6 437/1/6
f 437/1/6 433/1/6 438/1/6
f 439/1/6 440/1/6 441/1/6
f 441/1/6 440/1/6 442/1/6
f 443/1/6 444/1/6 445/1/6
f 445/1/6 444/1/6 446/1/6
f 447/1/6 448/1/6 449/1/6
f 449/1/6 448/1/6 450/1/6
f 451/1/6 452/1/6 453/1/6
f 453/1/6 452/1/6 454/1/6
