# MagicaVoxel @ Ephtracy

# group
o 

# material
mtllib grass-forest7.mtl
usemtl palette

# normals
vn -1 0 0
vn 1 0 0
vn 0 0 1
vn 0 0 -1
vn 0 -1 0
vn 0 1 0

# texcoords
vt 0.970703 0.5
vt 0.974609 0.5

# verts
v -0.4 0 0.3
v -0.4 0 0.2
v -0.4 0 -0.2
v -0.4 0 -0.4
v -0.4 0.1 0.3
v -0.4 0.1 0.2
v -0.4 0.1 -0.3
v -0.4 0.1 -0.4
v -0.4 0.2 -0.2
v -0.4 0.2 -0.3
v -0.3 0 0.4
v -0.3 0 0.3
v -0.3 0 0.2
v -0.3 0 0.1
v -0.3 0 -0.1
v -0.3 0 -0.2
v -0.3 0.1 0.4
v -0.3 0.1 0.3
v -0.3 0.1 0.2
v -0.3 0.1 -0.3
v -0.3 0.1 -0.4
v -0.3 0.2 0.3
v -0.3 0.2 0.1
v -0.3 0.2 -0.2
v -0.3 0.2 -0.3
v -0.3 0.2 -0.4
v -0.3 0.3 -0.1
v -0.3 0.3 -0.2
v -0.1 0.1 0.4
v -0.1 0.1 0.3
v -0.1 0.1 -0.2
v -0.1 0.1 -0.3
v -0.1 0.2 0.4
v -0.1 0.2 0.3
v -0.1 0.2 -0.2
v -0.1 0.2 -0.3
v 7.45058e-009 0 -0.3
v 7.45058e-009 0 -0.4
v 7.45058e-009 0.1 0.2
v 7.45058e-009 0.1 0.1
v 7.45058e-009 0.1 -0.1
v 7.45058e-009 0.1 -0.2
v 7.45058e-009 0.1 -0.3
v 7.45058e-009 0.1 -0.4
v 7.45058e-009 0.2 0.2
v 7.45058e-009 0.2 0.1
v 7.45058e-009 0.2 -0.1
v 7.45058e-009 0.2 -0.2
v 0.1 0.1 0.4
v 0.1 0.1 0.3
v 0.1 0.1 -0.3
v 0.1 0.1 -0.4
v 0.1 0.3 0.4
v 0.1 0.3 0.3
v 0.1 0.3 -0.3
v 0.1 0.3 -0.4
v 0.3 0.1 0.3
v 0.3 0.1 0.2
v 0.3 0.2 0.3
v 0.3 0.2 0.2
v -0.3 0.1 -0.2
v -0.3 0.1 -0.3
v -0.3 0.2 -0.2
v -0.3 0.2 -0.3
v -0.2 0 -0.3
v -0.2 0 -0.4
v -0.2 0.1 0.3
v -0.2 0.1 0.1
v -0.2 0.1 -0.1
v -0.2 0.1 -0.2
v -0.2 0.1 -0.3
v -0.2 0.2 0.3
v -0.2 0.2 0.1
v -0.2 0.2 -0.3
v -0.2 0.2 -0.4
v -0.2 0.3 -0.1
v -0.2 0.3 -0.2
v 7.45058e-009 0.1 0.4
v 7.45058e-009 0.1 0.3
v 7.45058e-009 0.1 -0.2
v 7.45058e-009 0.1 -0.3
v 7.45058e-009 0.2 0.4
v 7.45058e-009 0.2 0.3
v 7.45058e-009 0.2 -0.2
v 7.45058e-009 0.2 -0.3
v 0.1 0.1 0.2
v 0.1 0.1 0.1
v 0.1 0.1 -0.1
v 0.1 0.1 -0.2
v 0.1 0.2 0.2
v 0.1 0.2 0.1
v 0.1 0.2 -0.1
v 0.1 0.2 -0.2
v 0.2 0 -0.1
v 0.2 0 -0.3
v 0.2 0 -0.4
v 0.2 0.1 0.4
v 0.2 0.1 0.3
v 0.2 0.1 -0.1
v 0.2 0.1 -0.3
v 0.2 0.3 0.4
v 0.2 0.3 0.3
v 0.2 0.3 -0.3
v 0.2 0.3 -0.4
v 0.3 0 0.2
v 0.3 0 0.1
v 0.3 0.1 0.2
v 0.3 0.1 0.1
v 0.4 0 0.4
v 0.4 0 0.3
v 0.4 0 0.2
v 0.4 0.1 0.4
v 0.4 0.1 0.3
v 0.4 0.2 0.3
v 0.4 0.2 0.2
v -0.3 0 0.4
v -0.3 0.1 0.4
v -0.1 0 0.4
v -0.1 0.1 0.4
v -0.1 0.2 0.4
v 7.45058e-009 0 0.4
v 7.45058e-009 0.1 0.4
v 7.45058e-009 0.2 0.4
v 0.1 0 0.4
v 0.1 0.1 0.4
v 0.1 0.3 0.4
v 0.2 0 0.4
v 0.2 0.1 0.4
v 0.2 0.3 0.4
v 0.4 0 0.4
v 0.4 0.1 0.4
v -0.4 0 0.3
v -0.4 0.1 0.3
v -0.3 0 0.3
v -0.3 0.1 0.3
v -0.3 0.2 0.3
v -0.2 0.1 0.3
v -0.2 0.2 0.3
v 0.3 0.1 0.3
v 0.3 0.2 0.3
v 0.4 0.1 0.3
v 0.4 0.2 0.3
v 7.45058e-009 0.1 0.2
v 7.45058e-009 0.2 0.2
v 0.1 0.1 0.2
v 0.1 0.2 0.2
v -0.3 0 -0.1
v -0.3 0.3 -0.1
v -0.2 0 -0.1
v -0.2 0.1 -0.1
v -0.2 0.3 -0.1
v 7.45058e-009 0 -0.1
v 7.45058e-009 0.1 -0.1
v 7.45058e-009 0.2 -0.1
v 0.1 0 -0.1
v 0.1 0.1 -0.1
v 0.1 0.2 -0.1
v 0.2 0 -0.1
v 0.2 0.1 -0.1
v -0.4 0 -0.2
v -0.4 0.2 -0.2
v -0.3 0 -0.2
v -0.3 0.2 -0.2
v -0.1 0.1 -0.2
v -0.1 0.2 -0.2
v 7.45058e-009 0.1 -0.2
v 7.45058e-009 0.2 -0.2
v -0.3 0.1 -0.3
v -0.3 0.2 -0.3
v -0.2 0.1 -0.3
v -0.2 0.2 -0.3
v 0.1 0.1 -0.3
v 0.1 0.3 -0.3
v 0.2 0.1 -0.3
v 0.2 0.3 -0.3
v -0.1 0.1 0.3
v -0.1 0.2 0.3
v 7.45058e-009 0.1 0.3
v 7.45058e-009 0.2 0.3
v 0.1 0.1 0.3
v 0.1 0.3 0.3
v 0.2 0.1 0.3
v 0.2 0.3 0.3
v -0.4 0 0.2
v -0.4 0.1 0.2
v -0.3 0 0.2
v -0.3 0.1 0.2
v 0.3 0 0.2
v 0.3 0.1 0.2
v 0.3 0.2 0.2
v 0.4 0 0.2
v 0.4 0.2 0.2
v -0.3 0 0.1
v -0.3 0.2 0.1
v -0.2 0 0.1
v -0.2 0.1 0.1
v -0.2 0.2 0.1
v 7.45058e-009 0 0.1
v 7.45058e-009 0.1 0.1
v 7.45058e-009 0.2 0.1
v 0.1 0 0.1
v 0.1 0.1 0.1
v 0.1 0.2 0.1
v 0.3 0 0.1
v 0.3 0.1 0.1
v -0.3 0.1 -0.2
v -0.3 0.2 -0.2
v -0.3 0.3 -0.2
v -0.2 0.1 -0.2
v -0.2 0.3 -0.2
v 7.45058e-009 0.1 -0.2
v 7.45058e-009 0.2 -0.2
v 0.1 0.1 -0.2
v 0.1 0.2 -0.2
v -0.4 0.1 -0.3
v -0.4 0.2 -0.3
v -0.3 0.1 -0.3
v -0.3 0.2 -0.3
v -0.2 0 -0.3
v -0.2 0.1 -0.3
v -0.1 0 -0.3
v -0.1 0.1 -0.3
v -0.1 0.2 -0.3
v 7.45058e-009 0 -0.3
v 7.45058e-009 0.1 -0.3
v 7.45058e-009 0.2 -0.3
v -0.4 0 -0.4
v -0.4 0.1 -0.4
v -0.3 0 -0.4
v -0.3 0.1 -0.4
v -0.3 0.2 -0.4
v -0.2 0 -0.4
v -0.2 0.2 -0.4
v 7.45058e-009 0 -0.4
v 7.45058e-009 0.1 -0.4
v 0.1 0 -0.4
v 0.1 0.1 -0.4
v 0.1 0.3 -0.4
v 0.2 0 -0.4
v 0.2 0.3 -0.4
v -0.3 0 0.4
v -0.1 0 0.4
v 7.45058e-009 0 0.4
v 0.1 0 0.4
v 0.2 0 0.4
v 0.4 0 0.4
v -0.4 0 0.3
v -0.3 0 0.3
v -0.1 0 0.3
v 7.45058e-009 0 0.3
v 0.1 0 0.3
v 0.2 0 0.3
v 0.3 0 0.3
v 0.4 0 0.3
v -0.4 0 0.2
v -0.3 0 0.2
v -0.2 0 0.2
v 7.45058e-009 0 0.2
v 0.1 0 0.2
v 0.3 0 0.2
v 0.4 0 0.2
v -0.3 0 0.1
v -0.2 0 0.1
v 7.45058e-009 0 0.1
v 0.1 0 0.1
v 0.3 0 0.1
v -0.3 0 -0.1
v -0.2 0 -0.1
v 7.45058e-009 0 -0.1
v 0.1 0 -0.1
v 0.2 0 -0.1
v -0.4 0 -0.2
v -0.3 0 -0.2
v -0.2 0 -0.2
v -0.1 0 -0.2
v 7.45058e-009 0 -0.2
v 0.1 0 -0.2
v -0.3 0 -0.3
v -0.2 0 -0.3
v -0.1 0 -0.3
v 7.45058e-009 0 -0.3
v 0.1 0 -0.3
v 0.2 0 -0.3
v -0.4 0 -0.4
v -0.3 0 -0.4
v -0.2 0 -0.4
v 7.45058e-009 0 -0.4
v 0.1 0 -0.4
v 0.2 0 -0.4
v -0.3 0.1 0.4
v -0.1 0.1 0.4
v 7.45058e-009 0.1 0.4
v 0.1 0.1 0.4
v 0.2 0.1 0.4
v 0.4 0.1 0.4
v -0.4 0.1 0.3
v -0.3 0.1 0.3
v -0.2 0.1 0.3
v -0.1 0.1 0.3
v 7.45058e-009 0.1 0.3
v 0.1 0.1 0.3
v 0.2 0.1 0.3
v 0.3 0.1 0.3
v 0.4 0.1 0.3
v -0.4 0.1 0.2
v -0.3 0.1 0.2
v 7.45058e-009 0.1 0.2
v 0.1 0.1 0.2
v 0.3 0.1 0.2
v -0.2 0.1 0.1
v 7.45058e-009 0.1 0.1
v 0.1 0.1 0.1
v 0.3 0.1 0.1
v -0.2 0.1 -0.1
v 7.45058e-009 0.1 -0.1
v 0.1 0.1 -0.1
v 0.2 0.1 -0.1
v -0.3 0.1 -0.2
v -0.2 0.1 -0.2
v -0.1 0.1 -0.2
v 7.45058e-009 0.1 -0.2
v 0.1 0.1 -0.2
v -0.4 0.1 -0.3
v -0.3 0.1 -0.3
v -0.2 0.1 -0.3
v -0.1 0.1 -0.3
v 7.45058e-009 0.1 -0.3
v 0.1 0.1 -0.3
v 0.2 0.1 -0.3
v -0.4 0.1 -0.4
v -0.3 0.1 -0.4
v 7.45058e-009 0.1 -0.4
v 0.1 0.1 -0.4
v -0.1 0.2 0.4
v 7.45058e-009 0.2 0.4
v -0.3 0.2 0.3
v -0.2 0.2 0.3
v -0.1 0.2 0.3
v 7.45058e-009 0.2 0.3
v 0.3 0.2 0.3
v 0.4 0.2 0.3
v 7.45058e-009 0.2 0.2
v 0.1 0.2 0.2
v 0.3 0.2 0.2
v 0.4 0.2 0.2
v -0.3 0.2 0.1
v -0.2 0.2 0.1
v 7.45058e-009 0.2 0.1
v 0.1 0.2 0.1
v 7.45058e-009 0.2 -0.1
v 0.1 0.2 -0.1
v -0.4 0.2 -0.2
v -0.3 0.2 -0.2
v -0.1 0.2 -0.2
v 7.45058e-009 0.2 -0.2
v 0.1 0.2 -0.2
v -0.4 0.2 -0.3
v -0.3 0.2 -0.3
v -0.2 0.2 -0.3
v -0.1 0.2 -0.3
v 7.45058e-009 0.2 -0.3
v -0.3 0.2 -0.4
v -0.2 0.2 -0.4
v 0.1 0.3 0.4
v 0.2 0.3 0.4
v 0.1 0.3 0.3
v 0.2 0.3 0.3
v -0.3 0.3 -0.1
v -0.2 0.3 -0.1
v -0.3 0.3 -0.2
v -0.2 0.3 -0.2
v 0.1 0.3 -0.3
v 0.2 0.3 -0.3
v 0.1 0.3 -0.4
v 0.2 0.3 -0.4

# faces
f 5/1/1 2/1/1 1/1/1
f 6/1/1 2/1/1 5/1/1
f 7/1/1 4/1/1 3/1/1
f 8/1/1 4/1/1 7/1/1
f 9/1/1 7/1/1 3/1/1
f 10/1/1 7/1/1 9/1/1
f 17/1/1 12/1/1 11/1/1
f 18/1/1 12/1/1 17/1/1
f 19/2/1 14/2/1 13/2/1
f 22/2/1 19/2/1 18/2/1
f 23/2/1 14/2/1 19/2/1
f 23/2/1 19/2/1 22/2/1
f 24/2/1 16/2/1 15/2/1
f 25/2/1 21/2/1 20/2/1
f 26/2/1 21/2/1 25/2/1
f 27/2/1 24/2/1 15/2/1
f 28/2/1 24/2/1 27/2/1
f 33/2/1 30/2/1 29/2/1
f 34/2/1 30/2/1 33/2/1
f 35/2/1 32/2/1 31/2/1
f 36/2/1 32/2/1 35/2/1
f 43/1/1 38/1/1 37/1/1
f 44/1/1 38/1/1 43/1/1
f 45/2/1 40/2/1 39/2/1
f 46/2/1 40/2/1 45/2/1
f 47/2/1 42/2/1 41/2/1
f 48/2/1 42/2/1 47/2/1
f 53/2/1 50/2/1 49/2/1
f 54/2/1 50/2/1 53/2/1
f 55/2/1 52/2/1 51/2/1
f 56/2/1 52/2/1 55/2/1
f 59/2/1 58/2/1 57/2/1
f 60/2/1 58/2/1 59/2/1
f 61/1/2 62/1/2 63/1/2
f 63/1/2 62/1/2 64/1/2
f 65/2/2 66/2/2 71/2/2
f 67/2/2 68/2/2 72/2/2
f 72/2/2 68/2/2 73/2/2
f 71/2/2 66/2/2 74/2/2
f 74/2/2 66/2/2 75/2/2
f 69/2/2 70/2/2 76/2/2
f 76/2/2 70/2/2 77/2/2
f 78/2/2 79/2/2 82/2/2
f 82/2/2 79/2/2 83/2/2
f 80/2/2 81/2/2 84/2/2
f 84/2/2 81/2/2 85/2/2
f 86/2/2 87/2/2 90/2/2
f 90/2/2 87/2/2 91/2/2
f 88/2/2 89/2/2 92/2/2
f 92/2/2 89/2/2 93/2/2
f 94/1/2 95/1/2 99/1/2
f 95/2/2 96/2/2 100/2/2
f 99/1/2 95/1/2 100/1/2
f 97/2/2 98/2/2 101/2/2
f 101/2/2 98/2/2 102/2/2
f 100/2/2 96/2/2 103/2/2
f 103/2/2 96/2/2 104/2/2
f 105/1/2 106/1/2 107/1/2
f 107/1/2 106/1/2 108/1/2
f 109/1/2 110/1/2 112/1/2
f 110/2/2 111/2/2 113/2/2
f 112/1/2 110/1/2 113/1/2
f 113/2/2 111/2/2 114/2/2
f 114/2/2 111/2/2 115/2/2
f 118/1/3 117/1/3 116/1/3
f 119/1/3 117/1/3 118/1/3
f 121/2/3 119/2/3 118/2/3
f 121/2/3 120/2/3 119/2/3
f 122/2/3 120/2/3 121/2/3
f 123/2/3 120/2/3 122/2/3
f 124/1/3 122/1/3 121/1/3
f 125/1/3 122/1/3 124/1/3
f 127/2/3 125/2/3 124/2/3
f 127/2/3 126/2/3 125/2/3
f 128/2/3 126/2/3 127/2/3
f 129/2/3 126/2/3 128/2/3
f 130/1/3 128/1/3 127/1/3
f 131/1/3 128/1/3 130/1/3
f 134/1/3 133/1/3 132/1/3
f 135/1/3 133/1/3 134/1/3
f 137/2/3 136/2/3 135/2/3
f 138/2/3 136/2/3 137/2/3
f 141/2/3 140/2/3 139/2/3
f 142/2/3 140/2/3 141/2/3
f 145/2/3 144/2/3 143/2/3
f 146/2/3 144/2/3 145/2/3
f 149/2/3 148/2/3 147/2/3
f 150/2/3 148/2/3 149/2/3
f 151/2/3 148/2/3 150/2/3
f 152/1/3 150/1/3 149/1/3
f 153/1/3 150/1/3 152/1/3
f 155/2/3 153/2/3 152/2/3
f 155/2/3 154/2/3 153/2/3
f 156/2/3 154/2/3 155/2/3
f 157/2/3 154/2/3 156/2/3
f 158/1/3 156/1/3 155/1/3
f 159/1/3 156/1/3 158/1/3
f 162/1/3 161/1/3 160/1/3
f 163/1/3 161/1/3 162/1/3
f 166/2/3 165/2/3 164/2/3
f 167/2/3 165/2/3 166/2/3
f 170/2/3 169/2/3 168/2/3
f 171/2/3 169/2/3 170/2/3
f 174/2/3 173/2/3 172/2/3
f 175/2/3 173/2/3 174/2/3
f 176/2/4 177/2/4 178/2/4
f 178/2/4 177/2/4 179/2/4
f 180/2/4 181/2/4 182/2/4
f 182/2/4 181/2/4 183/2/4
f 184/1/4 185/1/4 186/1/4
f 186/1/4 185/1/4 187/1/4
f 188/2/4 189/2/4 191/2/4
f 189/2/4 190/2/4 191/2/4
f 191/2/4 190/2/4 192/2/4
f 193/2/4 194/2/4 195/2/4
f 195/2/4 194/2/4 196/2/4
f 196/2/4 194/2/4 197/2/4
f 195/1/4 196/1/4 198/1/4
f 198/1/4 196/1/4 199/1/4
f 198/2/4 199/2/4 201/2/4
f 199/2/4 200/2/4 201/2/4
f 201/2/4 200/2/4 202/2/4
f 202/2/4 200/2/4 203/2/4
f 201/1/4 202/1/4 204/1/4
f 204/1/4 202/1/4 205/1/4
f 206/2/4 207/2/4 209/2/4
f 207/2/4 208/2/4 209/2/4
f 209/2/4 208/2/4 210/2/4
f 211/2/4 212/2/4 213/2/4
f 213/2/4 212/2/4 214/2/4
f 215/1/4 216/1/4 217/1/4
f 217/1/4 216/1/4 218/1/4
f 219/1/4 220/1/4 221/1/4
f 221/1/4 220/1/4 222/1/4
f 221/2/4 222/2/4 224/2/4
f 222/2/4 223/2/4 224/2/4
f 224/2/4 223/2/4 225/2/4
f 225/2/4 223/2/4 226/2/4
f 227/1/4 228/1/4 229/1/4
f 229/1/4 228/1/4 230/1/4
f 229/2/4 230/2/4 232/2/4
f 230/2/4 231/2/4 232/2/4
f 232/2/4 231/2/4 233/2/4
f 234/1/4 235/1/4 236/1/4
f 236/1/4 235/1/4 237/1/4
f 236/2/4 237/2/4 239/2/4
f 237/2/4 238/2/4 239/2/4
f 239/2/4 238/2/4 240/2/4
f 248/1/5 242/1/5 241/1/5
f 249/2/5 243/2/5 242/2/5
f 249/1/5 242/1/5 248/1/5
f 250/1/5 244/1/5 243/1/5
f 250/2/5 243/2/5 249/2/5
f 251/2/5 245/2/5 244/2/5
f 251/1/5 244/1/5 250/1/5
f 252/1/5 246/1/5 245/1/5
f 252/2/5 245/2/5 251/2/5
f 253/1/5 246/1/5 252/1/5
f 254/1/5 246/1/5 253/1/5
f 255/1/5 251/1/5 250/1/5
f 255/1/5 248/1/5 247/1/5
f 255/1/5 249/1/5 248/1/5
f 255/1/5 253/1/5 252/1/5
f 255/1/5 252/1/5 251/1/5
f 255/1/5 250/1/5 249/1/5
f 256/1/5 253/1/5 255/1/5
f 257/1/5 253/1/5 256/1/5
f 258/1/5 253/1/5 257/1/5
f 259/1/5 253/1/5 258/1/5
f 260/2/5 254/2/5 253/2/5
f 260/1/5 253/1/5 259/1/5
f 261/2/5 254/2/5 260/2/5
f 262/2/5 257/2/5 256/2/5
f 263/1/5 258/1/5 257/1/5
f 263/2/5 257/2/5 262/2/5
f 264/2/5 259/2/5 258/2/5
f 264/1/5 258/1/5 263/1/5
f 265/1/5 260/1/5 259/1/5
f 265/2/5 259/2/5 264/2/5
f 266/1/5 260/1/5 265/1/5
f 273/2/5 268/2/5 267/2/5
f 274/1/5 269/1/5 268/1/5
f 274/2/5 268/2/5 273/2/5
f 275/1/5 269/1/5 274/1/5
f 276/2/5 270/2/5 269/2/5
f 276/1/5 269/1/5 275/1/5
f 277/1/5 271/1/5 270/1/5
f 277/2/5 270/2/5 276/2/5
f 278/1/5 273/1/5 272/1/5
f 278/1/5 275/1/5 274/1/5
f 278/1/5 274/1/5 273/1/5
f 279/1/5 275/1/5 278/1/5
f 280/2/5 276/2/5 275/2/5
f 280/1/5 275/1/5 279/1/5
f 281/1/5 277/1/5 276/1/5
f 281/2/5 276/2/5 280/2/5
f 282/1/5 271/1/5 277/1/5
f 282/1/5 277/1/5 281/1/5
f 283/1/5 271/1/5 282/1/5
f 284/1/5 278/1/5 272/1/5
f 285/2/5 279/2/5 278/2/5
f 285/1/5 278/1/5 284/1/5
f 286/2/5 279/2/5 285/2/5
f 287/1/5 282/1/5 281/1/5
f 288/2/5 283/2/5 282/2/5
f 288/1/5 282/1/5 287/1/5
f 289/2/5 283/2/5 288/2/5
f 290/1/6 291/1/6 297/1/6
f 297/1/6 291/1/6 298/1/6
f 298/1/6 291/1/6 299/1/6
f 292/1/6 293/1/6 300/1/6
f 300/1/6 293/1/6 301/1/6
f 294/1/6 295/1/6 302/1/6
f 302/1/6 295/1/6 303/1/6
f 303/1/6 295/1/6 304/1/6
f 296/1/6 297/1/6 305/1/6
f 305/1/6 297/1/6 306/1/6
f 300/1/6 301/1/6 307/1/6
f 298/1/6 299/1/6 307/1/6
f 302/1/6 303/1/6 307/1/6
f 301/1/6 302/1/6 307/1/6
f 299/1/6 300/1/6 307/1/6
f 307/1/6 303/1/6 308/1/6
f 308/1/6 303/1/6 309/1/6
f 298/1/6 307/1/6 310/1/6
f 310/1/6 307/1/6 311/1/6
f 308/1/6 309/1/6 312/1/6
f 312/1/6 309/1/6 313/1/6
f 314/1/6 315/1/6 319/1/6
f 319/1/6 315/1/6 320/1/6
f 320/1/6 315/1/6 321/1/6
f 316/1/6 317/1/6 322/1/6
f 318/1/6 319/1/6 324/1/6
f 319/1/6 320/1/6 324/1/6
f 324/1/6 320/1/6 325/1/6
f 325/1/6 320/1/6 326/1/6
f 321/1/6 322/1/6 327/1/6
f 322/1/6 317/1/6 328/1/6
f 327/1/6 322/1/6 328/1/6
f 328/1/6 317/1/6 329/1/6
f 323/1/6 324/1/6 330/1/6
f 330/1/6 324/1/6 331/1/6
f 327/1/6 328/1/6 332/1/6
f 332/1/6 328/1/6 333/1/6
f 334/2/6 335/2/6 338/2/6
f 338/2/6 335/2/6 339/2/6
f 340/2/6 341/2/6 344/2/6
f 344/2/6 341/2/6 345/2/6
f 336/2/6 337/2/6 346/2/6
f 346/2/6 337/2/6 347/2/6
f 342/2/6 343/2/6 348/2/6
f 348/2/6 343/2/6 349/2/6
f 350/2/6 351/2/6 355/2/6
f 355/2/6 351/2/6 356/2/6
f 352/1/6 353/1/6 357/1/6
f 357/1/6 353/1/6 358/1/6
f 354/2/6 355/2/6 360/2/6
f 360/2/6 355/2/6 361/2/6
f 358/2/6 359/2/6 362/2/6
f 362/2/6 359/2/6 363/2/6
f 364/2/6 365/2/6 366/2/6
f 366/2/6 365/2/6 367/2/6
f 368/2/6 369/2/6 370/2/6
f 370/2/6 369/2/6 371/2/6
f 372/2/6 373/2/6 374/2/6
f 374/2/6 373/2/6 375/2/6
