# MagicaVoxel @ Ephtracy

# group
o 

# material
mtllib grass-forest5.mtl
usemtl palette

# normals
vn -1 0 0
vn 1 0 0
vn 0 0 1
vn 0 0 -1
vn 0 -1 0
vn 0 1 0

# texcoords
vt 0.970703 0.5
vt 0.978516 0.5

# verts
v -0.5 0 1.49012e-008
v -0.5 0 -0.1
v -0.5 0.2 1.49012e-008
v -0.5 0.2 -0.1
v -0.4 0 0.4
v -0.4 0 0.3
v -0.4 0 -0.4
v -0.4 0 -0.5
v -0.4 0.2 0.4
v -0.4 0.2 0.3
v -0.4 0.2 -0.4
v -0.4 0.2 -0.5
v -0.3 0 1.49012e-008
v -0.3 0 -0.1
v -0.3 0.2 -0.1
v -0.3 0.2 -0.2
v -0.3 0.3 -0.1
v -0.3 0.3 -0.2
v -0.3 0.3 -0.3
v -0.3 0.4 0.1
v -0.3 0.4 1.49012e-008
v -0.3 0.4 -0.2
v -0.3 0.4 -0.3
v -0.3 0.5 0.2
v -0.3 0.5 0.1
v -0.3 0.5 1.49012e-008
v -0.3 0.5 -0.2
v -0.3 0.5 -0.3
v -0.3 0.6 0.2
v -0.3 0.6 0.1
v -0.3 0.7 0.2
v -0.3 0.7 0.1
v -0.3 0.8 1.49012e-008
v -0.3 0.8 -0.1
v -0.2 0 0.2
v -0.2 0 0.1
v -0.2 0 -0.2
v -0.2 0 -0.3
v -0.2 0.2 0.2
v -0.2 0.2 0.1
v -0.2 0.2 -0.2
v -0.2 0.2 -0.3
v -1.49012e-008 0 0.4
v -1.49012e-008 0 0.3
v -1.49012e-008 0 1.49012e-008
v -1.49012e-008 0 -0.1
v -1.49012e-008 0.2 0.4
v -1.49012e-008 0.2 0.3
v -1.49012e-008 0.4 0.1
v -1.49012e-008 0.4 1.49012e-008
v -1.49012e-008 0.5 0.2
v -1.49012e-008 0.5 0.1
v -1.49012e-008 0.5 1.49012e-008
v -1.49012e-008 0.6 0.2
v -1.49012e-008 0.6 0.1
v -1.49012e-008 0.7 0.2
v -1.49012e-008 0.7 0.1
v -1.49012e-008 0.7 1.49012e-008
v -1.49012e-008 0.7 -0.1
v 0.1 0.6 0.5
v 0.1 0.6 0.4
v 0.1 0.7 0.5
v 0.1 0.7 0.4
v 0.1 0.8 0.5
v 0.1 0.8 0.4
v 0.2 0 -0.3
v 0.2 0 -0.4
v 0.2 0.2 1.49012e-008
v 0.2 0.2 -0.1
v 0.2 0.2 -0.3
v 0.2 0.2 -0.4
v 0.2 0.3 1.49012e-008
v 0.2 0.3 -0.1
v 0.2 0.4 1.49012e-008
v 0.2 0.4 -0.1
v 0.2 0.5 0.5
v 0.2 0.5 0.4
v 0.2 0.6 0.5
v 0.2 0.6 0.4
v 0.3 0 0.5
v 0.3 0 0.4
v 0.3 0 0.2
v 0.3 0 0.1
v 0.3 0.2 0.2
v 0.3 0.2 0.1
v 0.3 0.3 0.4
v 0.3 0.3 0.3
v 0.3 0.4 0.4
v 0.3 0.4 0.3
v 0.3 0.4 0.2
v 0.3 0.5 0.5
v 0.3 0.5 0.4
v 0.3 0.5 0.3
v 0.3 0.5 0.2
v 0.3 0.6 0.5
v 0.3 0.6 0.4
v 0.3 0.6 0.3
v 0.3 0.6 0.2
v 0.3 0.9 0.5
v 0.3 0.9 0.4
v 0.4 0 -0.1
v 0.4 0 -0.2
v 0.4 0.2 -0.1
v 0.4 0.2 -0.2
v -0.4 0 1.49012e-008
v -0.4 0 -0.1
v -0.4 0.2 1.49012e-008
v -0.4 0.2 -0.1
v -0.3 0 0.4
v -0.3 0 0.3
v -0.3 0 -0.4
v -0.3 0 -0.5
v -0.3 0.2 0.4
v -0.3 0.2 0.3
v -0.3 0.2 -0.4
v -0.3 0.2 -0.5
v -0.2 0 1.49012e-008
v -0.2 0 -0.1
v -0.2 0.2 -0.1
v -0.2 0.2 -0.2
v -0.2 0.3 -0.1
v -0.2 0.3 -0.2
v -0.2 0.3 -0.3
v -0.2 0.4 0.1
v -0.2 0.4 1.49012e-008
v -0.2 0.4 -0.2
v -0.2 0.4 -0.3
v -0.2 0.5 0.2
v -0.2 0.5 0.1
v -0.2 0.5 1.49012e-008
v -0.2 0.5 -0.2
v -0.2 0.5 -0.3
v -0.2 0.6 0.2
v -0.2 0.6 0.1
v -0.2 0.7 0.2
v -0.2 0.7 0.1
v -0.2 0.8 1.49012e-008
v -0.2 0.8 -0.1
v -0.1 0 0.2
v -0.1 0 0.1
v -0.1 0 -0.2
v -0.1 0 -0.3
v -0.1 0.2 0.2
v -0.1 0.2 0.1
v -0.1 0.2 -0.2
v -0.1 0.2 -0.3
v 0.1 0 0.4
v 0.1 0 0.3
v 0.1 0 1.49012e-008
v 0.1 0 -0.1
v 0.1 0.1 1.49012e-008
v 0.1 0.1 -0.1
v 0.1 0.2 0.4
v 0.1 0.2 0.3
v 0.1 0.2 1.49012e-008
v 0.1 0.2 -0.1
v 0.1 0.4 0.1
v 0.1 0.4 1.49012e-008
v 0.1 0.5 0.2
v 0.1 0.5 0.1
v 0.1 0.5 1.49012e-008
v 0.1 0.6 0.2
v 0.1 0.6 0.1
v 0.1 0.7 0.2
v 0.1 0.7 0.1
v 0.1 0.7 1.49012e-008
v 0.1 0.7 -0.1
v 0.2 0.1 1.49012e-008
v 0.2 0.1 -0.1
v 0.2 0.2 1.49012e-008
v 0.2 0.2 -0.1
v 0.2 0.6 0.5
v 0.2 0.6 0.4
v 0.2 0.7 0.5
v 0.2 0.7 0.4
v 0.2 0.8 0.5
v 0.2 0.8 0.4
v 0.3 0 -0.3
v 0.3 0 -0.4
v 0.3 0.2 1.49012e-008
v 0.3 0.2 -0.1
v 0.3 0.2 -0.3
v 0.3 0.2 -0.4
v 0.3 0.3 1.49012e-008
v 0.3 0.3 -0.1
v 0.3 0.4 1.49012e-008
v 0.3 0.4 -0.1
v 0.4 0 0.5
v 0.4 0 0.4
v 0.4 0 0.2
v 0.4 0 0.1
v 0.4 0.2 0.2
v 0.4 0.2 0.1
v 0.4 0.3 0.4
v 0.4 0.3 0.3
v 0.4 0.4 0.4
v 0.4 0.4 0.3
v 0.4 0.4 0.2
v 0.4 0.5 0.3
v 0.4 0.5 0.2
v 0.4 0.6 0.3
v 0.4 0.6 0.2
v 0.4 0.9 0.5
v 0.4 0.9 0.4
v 0.5 0 -0.1
v 0.5 0 -0.2
v 0.5 0.2 -0.1
v 0.5 0.2 -0.2
v 0.1 0.6 0.5
v 0.1 0.7 0.5
v 0.1 0.8 0.5
v 0.2 0.5 0.5
v 0.2 0.6 0.5
v 0.2 0.7 0.5
v 0.2 0.8 0.5
v 0.3 0 0.5
v 0.3 0.5 0.5
v 0.3 0.6 0.5
v 0.3 0.9 0.5
v 0.4 0 0.5
v 0.4 0.9 0.5
v -0.4 0 0.4
v -0.4 0.2 0.4
v -0.3 0 0.4
v -0.3 0.2 0.4
v -1.49012e-008 0 0.4
v -1.49012e-008 0.2 0.4
v 0.1 0 0.4
v 0.1 0.2 0.4
v 0.3 0.4 0.3
v 0.3 0.5 0.3
v 0.3 0.6 0.3
v 0.4 0.4 0.3
v 0.4 0.5 0.3
v 0.4 0.6 0.3
v -0.3 0.5 0.2
v -0.3 0.6 0.2
v -0.3 0.7 0.2
v -0.2 0 0.2
v -0.2 0.2 0.2
v -0.2 0.5 0.2
v -0.2 0.6 0.2
v -0.2 0.7 0.2
v -0.1 0 0.2
v -0.1 0.2 0.2
v -1.49012e-008 0.5 0.2
v -1.49012e-008 0.6 0.2
v -1.49012e-008 0.7 0.2
v 0.1 0.5 0.2
v 0.1 0.6 0.2
v 0.1 0.7 0.2
v 0.3 0 0.2
v 0.3 0.2 0.2
v 0.4 0 0.2
v 0.4 0.2 0.2
v -0.3 0.4 0.1
v -0.3 0.5 0.1
v -0.2 0.4 0.1
v -0.2 0.5 0.1
v -1.49012e-008 0.4 0.1
v -1.49012e-008 0.5 0.1
v 0.1 0.4 0.1
v 0.1 0.5 0.1
v -0.5 0 1.49012e-008
v -0.5 0.2 1.49012e-008
v -0.4 0 1.49012e-008
v -0.4 0.2 1.49012e-008
v -0.3 0 1.49012e-008
v -0.3 0.4 1.49012e-008
v -0.3 0.5 1.49012e-008
v -0.3 0.8 1.49012e-008
v -0.2 0 1.49012e-008
v -0.2 0.4 1.49012e-008
v -0.2 0.5 1.49012e-008
v -0.2 0.8 1.49012e-008
v -1.49012e-008 0 1.49012e-008
v -1.49012e-008 0.4 1.49012e-008
v -1.49012e-008 0.5 1.49012e-008
v -1.49012e-008 0.7 1.49012e-008
v 0.1 0 1.49012e-008
v 0.1 0.1 1.49012e-008
v 0.1 0.2 1.49012e-008
v 0.1 0.4 1.49012e-008
v 0.1 0.5 1.49012e-008
v 0.1 0.7 1.49012e-008
v 0.2 0.1 1.49012e-008
v 0.2 0.2 1.49012e-008
v 0.2 0.3 1.49012e-008
v 0.2 0.4 1.49012e-008
v 0.3 0.2 1.49012e-008
v 0.3 0.3 1.49012e-008
v 0.3 0.4 1.49012e-008
v 0.4 0 -0.1
v 0.4 0.2 -0.1
v 0.5 0 -0.1
v 0.5 0.2 -0.1
v -0.3 0.3 -0.2
v -0.3 0.4 -0.2
v -0.3 0.5 -0.2
v -0.2 0 -0.2
v -0.2 0.2 -0.2
v -0.2 0.3 -0.2
v -0.2 0.4 -0.2
v -0.2 0.5 -0.2
v -0.1 0 -0.2
v -0.1 0.2 -0.2
v 0.2 0 -0.3
v 0.2 0.2 -0.3
v 0.3 0 -0.3
v 0.3 0.2 -0.3
v -0.4 0 -0.4
v -0.4 0.2 -0.4
v -0.3 0 -0.4
v -0.3 0.2 -0.4
v 0.1 0.6 0.4
v 0.1 0.7 0.4
v 0.1 0.8 0.4
v 0.2 0.5 0.4
v 0.2 0.6 0.4
v 0.2 0.7 0.4
v 0.2 0.8 0.4
v 0.3 0 0.4
v 0.3 0.3 0.4
v 0.3 0.4 0.4
v 0.3 0.5 0.4
v 0.3 0.6 0.4
v 0.3 0.9 0.4
v 0.4 0 0.4
v 0.4 0.3 0.4
v 0.4 0.4 0.4
v 0.4 0.9 0.4
v -0.4 0 0.3
v -0.4 0.2 0.3
v -0.3 0 0.3
v -0.3 0.2 0.3
v -1.49012e-008 0 0.3
v -1.49012e-008 0.2 0.3
v 0.1 0 0.3
v 0.1 0.2 0.3
v 0.3 0.3 0.3
v 0.3 0.4 0.3
v 0.4 0.3 0.3
v 0.4 0.4 0.3
v 0.3 0.4 0.2
v 0.3 0.5 0.2
v 0.3 0.6 0.2
v 0.4 0.4 0.2
v 0.4 0.5 0.2
v 0.4 0.6 0.2
v -0.3 0.5 0.1
v -0.3 0.6 0.1
v -0.3 0.7 0.1
v -0.2 0 0.1
v -0.2 0.2 0.1
v -0.2 0.5 0.1
v -0.2 0.6 0.1
v -0.2 0.7 0.1
v -0.1 0 0.1
v -0.1 0.2 0.1
v -1.49012e-008 0.5 0.1
v -1.49012e-008 0.6 0.1
v -1.49012e-008 0.7 0.1
v 0.1 0.5 0.1
v 0.1 0.6 0.1
v 0.1 0.7 0.1
v 0.3 0 0.1
v 0.3 0.2 0.1
v 0.4 0 0.1
v 0.4 0.2 0.1
v -0.5 0 -0.1
v -0.5 0.2 -0.1
v -0.4 0 -0.1
v -0.4 0.2 -0.1
v -0.3 0 -0.1
v -0.3 0.2 -0.1
v -0.3 0.3 -0.1
v -0.3 0.8 -0.1
v -0.2 0 -0.1
v -0.2 0.2 -0.1
v -0.2 0.3 -0.1
v -0.2 0.8 -0.1
v -1.49012e-008 0 -0.1
v -1.49012e-008 0.7 -0.1
v 0.1 0 -0.1
v 0.1 0.1 -0.1
v 0.1 0.2 -0.1
v 0.1 0.7 -0.1
v 0.2 0.1 -0.1
v 0.2 0.2 -0.1
v 0.2 0.3 -0.1
v 0.2 0.4 -0.1
v 0.3 0.2 -0.1
v 0.3 0.3 -0.1
v 0.3 0.4 -0.1
v -0.3 0.2 -0.2
v -0.3 0.3 -0.2
v -0.2 0.2 -0.2
v -0.2 0.3 -0.2
v 0.4 0 -0.2
v 0.4 0.2 -0.2
v 0.5 0 -0.2
v 0.5 0.2 -0.2
v -0.3 0.3 -0.3
v -0.3 0.4 -0.3
v -0.3 0.5 -0.3
v -0.2 0 -0.3
v -0.2 0.2 -0.3
v -0.2 0.3 -0.3
v -0.2 0.4 -0.3
v -0.2 0.5 -0.3
v -0.1 0 -0.3
v -0.1 0.2 -0.3
v 0.2 0 -0.4
v 0.2 0.2 -0.4
v 0.3 0 -0.4
v 0.3 0.2 -0.4
v -0.4 0 -0.5
v -0.4 0.2 -0.5
v -0.3 0 -0.5
v -0.3 0.2 -0.5
v 0.3 0 0.5
v 0.4 0 0.5
v -0.4 0 0.4
v -0.3 0 0.4
v -1.49012e-008 0 0.4
v 0.1 0 0.4
v 0.3 0 0.4
v 0.4 0 0.4
v -0.4 0 0.3
v -0.3 0 0.3
v -1.49012e-008 0 0.3
v 0.1 0 0.3
v -0.2 0 0.2
v -0.1 0 0.2
v 0.3 0 0.2
v 0.4 0 0.2
v -0.2 0 0.1
v -0.1 0 0.1
v 0.3 0 0.1
v 0.4 0 0.1
v -0.5 0 1.49012e-008
v -0.4 0 1.49012e-008
v -0.3 0 1.49012e-008
v -0.2 0 1.49012e-008
v -1.49012e-008 0 1.49012e-008
v 0.1 0 1.49012e-008
v -0.5 0 -0.1
v -0.4 0 -0.1
v -0.3 0 -0.1
v -0.2 0 -0.1
v -1.49012e-008 0 -0.1
v 0.1 0 -0.1
v 0.4 0 -0.1
v 0.5 0 -0.1
v -0.2 0 -0.2
v -0.1 0 -0.2
v 0.4 0 -0.2
v 0.5 0 -0.2
v -0.2 0 -0.3
v -0.1 0 -0.3
v 0.2 0 -0.3
v 0.3 0 -0.3
v -0.4 0 -0.4
v -0.3 0 -0.4
v 0.2 0 -0.4
v 0.3 0 -0.4
v -0.4 0 -0.5
v -0.3 0 -0.5
v 0.1 0.1 1.49012e-008
v 0.2 0.1 1.49012e-008
v 0.1 0.1 -0.1
v 0.2 0.1 -0.1
v 0.2 0.2 1.49012e-008
v 0.3 0.2 1.49012e-008
v -0.3 0.2 -0.1
v -0.2 0.2 -0.1
v 0.2 0.2 -0.1
v 0.3 0.2 -0.1
v -0.3 0.2 -0.2
v -0.2 0.2 -0.2
v 0.3 0.3 0.4
v 0.4 0.3 0.4
v 0.3 0.3 0.3
v 0.4 0.3 0.3
v -0.3 0.3 -0.2
v -0.2 0.3 -0.2
v -0.3 0.3 -0.3
v -0.2 0.3 -0.3
v 0.3 0.4 0.3
v 0.4 0.4 0.3
v 0.3 0.4 0.2
v 0.4 0.4 0.2
v -0.3 0.4 0.1
v -0.2 0.4 0.1
v -1.49012e-008 0.4 0.1
v 0.1 0.4 0.1
v -0.3 0.4 1.49012e-008
v -0.2 0.4 1.49012e-008
v -1.49012e-008 0.4 1.49012e-008
v 0.1 0.4 1.49012e-008
v 0.2 0.5 0.5
v 0.3 0.5 0.5
v 0.2 0.5 0.4
v 0.3 0.5 0.4
v -0.3 0.5 0.2
v -0.2 0.5 0.2
v -1.49012e-008 0.5 0.2
v 0.1 0.5 0.2
v -0.3 0.5 0.1
v -0.2 0.5 0.1
v -1.49012e-008 0.5 0.1
v 0.1 0.5 0.1
v 0.1 0.6 0.5
v 0.2 0.6 0.5
v 0.1 0.6 0.4
v 0.2 0.6 0.4
v -0.4 0.2 0.4
v -0.3 0.2 0.4
v -1.49012e-008 0.2 0.4
v 0.1 0.2 0.4
v -0.4 0.2 0.3
v -0.3 0.2 0.3
v -1.49012e-008 0.2 0.3
v 0.1 0.2 0.3
v -0.2 0.2 0.2
v -0.1 0.2 0.2
v 0.3 0.2 0.2
v 0.4 0.2 0.2
v -0.2 0.2 0.1
v -0.1 0.2 0.1
v 0.3 0.2 0.1
v 0.4 0.2 0.1
v -0.5 0.2 1.49012e-008
v -0.4 0.2 1.49012e-008
v 0.1 0.2 1.49012e-008
v 0.2 0.2 1.49012e-008
v -0.5 0.2 -0.1
v -0.4 0.2 -0.1
v 0.1 0.2 -0.1
v 0.2 0.2 -0.1
v 0.4 0.2 -0.1
v 0.5 0.2 -0.1
v -0.2 0.2 -0.2
v -0.1 0.2 -0.2
v 0.4 0.2 -0.2
v 0.5 0.2 -0.2
v -0.2 0.2 -0.3
v -0.1 0.2 -0.3
v 0.2 0.2 -0.3
v 0.3 0.2 -0.3
v -0.4 0.2 -0.4
v -0.3 0.2 -0.4
v 0.2 0.2 -0.4
v 0.3 0.2 -0.4
v -0.4 0.2 -0.5
v -0.3 0.2 -0.5
v -0.3 0.3 -0.1
v -0.2 0.3 -0.1
v -0.3 0.3 -0.2
v -0.2 0.3 -0.2
v 0.3 0.4 0.4
v 0.4 0.4 0.4
v 0.3 0.4 0.3
v 0.4 0.4 0.3
v 0.2 0.4 1.49012e-008
v 0.3 0.4 1.49012e-008
v 0.2 0.4 -0.1
v 0.3 0.4 -0.1
v -0.3 0.5 0.1
v -0.2 0.5 0.1
v -1.49012e-008 0.5 0.1
v 0.1 0.5 0.1
v -0.3 0.5 1.49012e-008
v -0.2 0.5 1.49012e-008
v -1.49012e-008 0.5 1.49012e-008
v 0.1 0.5 1.49012e-008
v -0.3 0.5 -0.2
v -0.2 0.5 -0.2
v -0.3 0.5 -0.3
v -0.2 0.5 -0.3
v 0.2 0.6 0.5
v 0.3 0.6 0.5
v 0.2 0.6 0.4
v 0.3 0.6 0.4
v 0.3 0.6 0.3
v 0.4 0.6 0.3
v 0.3 0.6 0.2
v 0.4 0.6 0.2
v -0.3 0.7 0.2
v -0.2 0.7 0.2
v -1.49012e-008 0.7 0.2
v 0.1 0.7 0.2
v -0.3 0.7 0.1
v -0.2 0.7 0.1
v -1.49012e-008 0.7 0.1
v 0.1 0.7 0.1
v -1.49012e-008 0.7 1.49012e-008
v 0.1 0.7 1.49012e-008
v -1.49012e-008 0.7 -0.1
v 0.1 0.7 -0.1
v 0.1 0.8 0.5
v 0.2 0.8 0.5
v 0.1 0.8 0.4
v 0.2 0.8 0.4
v -0.3 0.8 1.49012e-008
v -0.2 0.8 1.49012e-008
v -0.3 0.8 -0.1
v -0.2 0.8 -0.1
v 0.3 0.9 0.5
v 0.4 0.9 0.5
v 0.3 0.9 0.4
v 0.4 0.9 0.4

# faces
f 3/1/1 2/1/1 1/1/1
f 4/1/1 2/1/1 3/1/1
f 9/1/1 6/1/1 5/1/1
f 10/1/1 6/1/1 9/1/1
f 11/1/1 8/1/1 7/1/1
f 12/1/1 8/1/1 11/1/1
f 15/1/1 14/1/1 13/1/1
f 17/1/1 15/1/1 13/1/1
f 17/1/1 16/1/1 15/1/1
f 18/1/1 16/1/1 17/1/1
f 21/1/1 17/1/1 13/1/1
f 22/1/1 19/1/1 18/1/1
f 23/1/1 19/1/1 22/1/1
f 25/1/1 21/1/1 20/1/1
f 26/1/1 17/1/1 21/1/1
f 26/1/1 21/1/1 25/1/1
f 27/2/1 23/2/1 22/2/1
f 28/2/1 23/2/1 27/2/1
f 29/1/1 25/1/1 24/1/1
f 30/1/1 25/1/1 29/1/1
f 31/2/1 30/2/1 29/2/1
f 32/2/1 30/2/1 31/2/1
f 33/1/1 17/1/1 26/1/1
f 34/1/1 17/1/1 33/1/1
f 39/1/1 36/1/1 35/1/1
f 40/1/1 36/1/1 39/1/1
f 41/1/1 38/1/1 37/1/1
f 42/1/1 38/1/1 41/1/1
f 47/1/1 44/1/1 43/1/1
f 48/1/1 44/1/1 47/1/1
f 50/1/1 46/1/1 45/1/1
f 52/1/1 50/1/1 49/1/1
f 53/1/1 46/1/1 50/1/1
f 53/1/1 50/1/1 52/1/1
f 54/1/1 52/1/1 51/1/1
f 55/1/1 52/1/1 54/1/1
f 56/2/1 55/2/1 54/2/1
f 57/2/1 55/2/1 56/2/1
f 58/1/1 46/1/1 53/1/1
f 59/1/1 46/1/1 58/1/1
f 62/1/1 61/1/1 60/1/1
f 63/1/1 61/1/1 62/1/1
f 64/2/1 63/2/1 62/2/1
f 65/2/1 63/2/1 64/2/1
f 70/1/1 67/1/1 66/1/1
f 71/1/1 67/1/1 70/1/1
f 72/1/1 69/1/1 68/1/1
f 73/1/1 69/1/1 72/1/1
f 74/2/1 73/2/1 72/2/1
f 75/2/1 73/2/1 74/2/1
f 78/1/1 77/1/1 76/1/1
f 79/1/1 77/1/1 78/1/1
f 84/1/1 83/1/1 82/1/1
f 85/1/1 83/1/1 84/1/1
f 86/1/1 81/1/1 80/1/1
f 88/1/1 86/1/1 80/1/1
f 88/1/1 87/1/1 86/1/1
f 89/1/1 87/1/1 88/1/1
f 91/1/1 88/1/1 80/1/1
f 92/1/1 88/1/1 91/1/1
f 93/1/1 90/1/1 89/1/1
f 94/1/1 90/1/1 93/1/1
f 97/2/1 94/2/1 93/2/1
f 98/2/1 94/2/1 97/2/1
f 99/1/1 96/1/1 95/1/1
f 100/1/1 96/1/1 99/1/1
f 103/1/1 102/1/1 101/1/1
f 104/1/1 102/1/1 103/1/1
f 105/1/2 106/1/2 107/1/2
f 107/1/2 106/1/2 108/1/2
f 109/1/2 110/1/2 113/1/2
f 113/1/2 110/1/2 114/1/2
f 111/1/2 112/1/2 115/1/2
f 115/1/2 112/1/2 116/1/2
f 117/1/2 118/1/2 119/1/2
f 117/1/2 119/1/2 121/1/2
f 119/1/2 120/1/2 121/1/2
f 121/1/2 120/1/2 122/1/2
f 117/1/2 121/1/2 125/1/2
f 122/1/2 123/1/2 126/1/2
f 126/1/2 123/1/2 127/1/2
f 124/1/2 125/1/2 129/1/2
f 125/1/2 121/1/2 130/1/2
f 129/1/2 125/1/2 130/1/2
f 126/2/2 127/2/2 131/2/2
f 131/2/2 127/2/2 132/2/2
f 128/1/2 129/1/2 133/1/2
f 133/1/2 129/1/2 134/1/2
f 133/2/2 134/2/2 135/2/2
f 135/2/2 134/2/2 136/2/2
f 130/1/2 121/1/2 137/1/2
f 137/1/2 121/1/2 138/1/2
f 139/1/2 140/1/2 143/1/2
f 143/1/2 140/1/2 144/1/2
f 141/1/2 142/1/2 145/1/2
f 145/1/2 142/1/2 146/1/2
f 149/1/2 150/1/2 151/1/2
f 151/1/2 150/1/2 152/1/2
f 147/1/2 148/1/2 153/1/2
f 153/1/2 148/1/2 154/1/2
f 155/1/2 156/1/2 158/1/2
f 157/1/2 158/1/2 160/1/2
f 158/1/2 156/1/2 161/1/2
f 160/1/2 158/1/2 161/1/2
f 159/1/2 160/1/2 162/1/2
f 162/1/2 160/1/2 163/1/2
f 162/2/2 163/2/2 164/2/2
f 164/2/2 163/2/2 165/2/2
f 161/1/2 156/1/2 166/1/2
f 166/1/2 156/1/2 167/1/2
f 168/1/2 169/1/2 170/1/2
f 170/1/2 169/1/2 171/1/2
f 172/1/2 173/1/2 174/1/2
f 174/1/2 173/1/2 175/1/2
f 174/2/2 175/2/2 176/2/2
f 176/2/2 175/2/2 177/2/2
f 178/1/2 179/1/2 182/1/2
f 182/1/2 179/1/2 183/1/2
f 180/1/2 181/1/2 184/1/2
f 184/1/2 181/1/2 185/1/2
f 184/2/2 185/2/2 186/2/2
f 186/2/2 185/2/2 187/2/2
f 190/1/2 191/1/2 192/1/2
f 192/1/2 191/1/2 193/1/2
f 188/1/2 189/1/2 194/1/2
f 188/1/2 194/1/2 196/1/2
f 194/1/2 195/1/2 196/1/2
f 196/1/2 195/1/2 197/1/2
f 197/1/2 198/1/2 199/1/2
f 199/1/2 198/1/2 200/1/2
f 199/2/2 200/2/2 201/2/2
f 201/2/2 200/2/2 202/2/2
f 188/1/2 196/1/2 203/1/2
f 203/1/2 196/1/2 204/1/2
f 205/1/2 206/1/2 207/1/2
f 207/1/2 206/1/2 208/1/2
f 213/1/3 210/1/3 209/1/3
f 214/2/3 211/2/3 210/2/3
f 214/1/3 210/1/3 213/1/3
f 215/2/3 211/2/3 214/2/3
f 217/1/3 213/1/3 212/1/3
f 218/1/3 213/1/3 217/1/3
f 220/1/3 218/1/3 217/1/3
f 220/1/3 219/1/3 218/1/3
f 220/1/3 217/1/3 216/1/3
f 221/1/3 219/1/3 220/1/3
f 224/1/3 223/1/3 222/1/3
f 225/1/3 223/1/3 224/1/3
f 228/1/3 227/1/3 226/1/3
f 229/1/3 227/1/3 228/1/3
f 233/1/3 231/1/3 230/1/3
f 234/2/3 232/2/3 231/2/3
f 234/1/3 231/1/3 233/1/3
f 235/2/3 232/2/3 234/2/3
f 241/1/3 237/1/3 236/1/3
f 242/2/3 238/2/3 237/2/3
f 242/1/3 237/1/3 241/1/3
f 243/2/3 238/2/3 242/2/3
f 244/1/3 240/1/3 239/1/3
f 245/1/3 240/1/3 244/1/3
f 249/1/3 247/1/3 246/1/3
f 250/2/3 248/2/3 247/2/3
f 250/1/3 247/1/3 249/1/3
f 251/2/3 248/2/3 250/2/3
f 254/1/3 253/1/3 252/1/3
f 255/1/3 253/1/3 254/1/3
f 258/1/3 257/1/3 256/1/3
f 259/1/3 257/1/3 258/1/3
f 262/1/3 261/1/3 260/1/3
f 263/1/3 261/1/3 262/1/3
f 266/1/3 265/1/3 264/1/3
f 267/1/3 265/1/3 266/1/3
f 272/1/3 269/1/3 268/1/3
f 273/1/3 269/1/3 272/1/3
f 274/1/3 271/1/3 270/1/3
f 275/1/3 271/1/3 274/1/3
f 280/1/3 277/1/3 276/1/3
f 281/1/3 277/1/3 280/1/3
f 282/1/3 277/1/3 281/1/3
f 283/1/3 277/1/3 282/1/3
f 284/1/3 279/1/3 278/1/3
f 285/1/3 279/1/3 284/1/3
f 286/1/3 282/1/3 281/1/3
f 287/1/3 282/1/3 286/1/3
f 290/1/3 288/1/3 287/1/3
f 291/2/3 289/2/3 288/2/3
f 291/1/3 288/1/3 290/1/3
f 292/2/3 289/2/3 291/2/3
f 295/1/3 294/1/3 293/1/3
f 296/1/3 294/1/3 295/1/3
f 302/1/3 298/1/3 297/1/3
f 303/2/3 299/2/3 298/2/3
f 303/1/3 298/1/3 302/1/3
f 304/2/3 299/2/3 303/2/3
f 305/1/3 301/1/3 300/1/3
f 306/1/3 301/1/3 305/1/3
f 309/1/3 308/1/3 307/1/3
f 310/1/3 308/1/3 309/1/3
f 313/1/3 312/1/3 311/1/3
f 314/1/3 312/1/3 313/1/3
f 315/1/4 316/1/4 319/1/4
f 316/2/4 317/2/4 320/2/4
f 319/1/4 316/1/4 320/1/4
f 320/2/4 317/2/4 321/2/4
f 318/1/4 319/1/4 325/1/4
f 325/1/4 319/1/4 326/1/4
f 322/1/4 323/1/4 328/1/4
f 328/1/4 323/1/4 329/1/4
f 326/1/4 327/1/4 330/1/4
f 325/1/4 326/1/4 330/1/4
f 324/1/4 325/1/4 330/1/4
f 330/1/4 327/1/4 331/1/4
f 332/1/4 333/1/4 334/1/4
f 334/1/4 333/1/4 335/1/4
f 336/1/4 337/1/4 338/1/4
f 338/1/4 337/1/4 339/1/4
f 340/1/4 341/1/4 342/1/4
f 342/1/4 341/1/4 343/1/4
f 344/1/4 345/1/4 347/1/4
f 345/2/4 346/2/4 348/2/4
f 347/1/4 345/1/4 348/1/4
f 348/2/4 346/2/4 349/2/4
f 350/1/4 351/1/4 355/1/4
f 351/2/4 352/2/4 356/2/4
f 355/1/4 351/1/4 356/1/4
f 356/2/4 352/2/4 357/2/4
f 353/1/4 354/1/4 358/1/4
f 358/1/4 354/1/4 359/1/4
f 360/1/4 361/1/4 363/1/4
f 361/2/4 362/2/4 364/2/4
f 363/1/4 361/1/4 364/1/4
f 364/2/4 362/2/4 365/2/4
f 366/1/4 367/1/4 368/1/4
f 368/1/4 367/1/4 369/1/4
f 370/1/4 371/1/4 372/1/4
f 372/1/4 371/1/4 373/1/4
f 374/1/4 375/1/4 378/1/4
f 378/1/4 375/1/4 379/1/4
f 376/1/4 377/1/4 380/1/4
f 380/1/4 377/1/4 381/1/4
f 382/1/4 383/1/4 384/1/4
f 384/1/4 383/1/4 385/1/4
f 385/1/4 383/1/4 386/1/4
f 386/1/4 383/1/4 387/1/4
f 385/1/4 386/1/4 388/1/4
f 388/1/4 386/1/4 389/1/4
f 389/1/4 390/1/4 392/1/4
f 390/2/4 391/2/4 393/2/4
f 392/1/4 390/1/4 393/1/4
f 393/2/4 391/2/4 394/2/4
f 395/1/4 396/1/4 397/1/4
f 397/1/4 396/1/4 398/1/4
f 399/1/4 400/1/4 401/1/4
f 401/1/4 400/1/4 402/1/4
f 403/1/4 404/1/4 408/1/4
f 404/2/4 405/2/4 409/2/4
f 408/1/4 404/1/4 409/1/4
f 409/2/4 405/2/4 410/2/4
f 406/1/4 407/1/4 411/1/4
f 411/1/4 407/1/4 412/1/4
f 413/1/4 414/1/4 415/1/4
f 415/1/4 414/1/4 416/1/4
f 417/1/4 418/1/4 419/1/4
f 419/1/4 418/1/4 420/1/4
f 427/1/5 422/1/5 421/1/5
f 428/1/5 422/1/5 427/1/5
f 429/1/5 424/1/5 423/1/5
f 430/1/5 424/1/5 429/1/5
f 431/1/5 426/1/5 425/1/5
f 432/1/5 426/1/5 431/1/5
f 437/1/5 434/1/5 433/1/5
f 438/1/5 434/1/5 437/1/5
f 439/1/5 436/1/5 435/1/5
f 440/1/5 436/1/5 439/1/5
f 447/1/5 442/1/5 441/1/5
f 448/1/5 442/1/5 447/1/5
f 449/1/5 444/1/5 443/1/5
f 450/1/5 444/1/5 449/1/5
f 451/1/5 446/1/5 445/1/5
f 452/1/5 446/1/5 451/1/5
f 457/1/5 454/1/5 453/1/5
f 458/1/5 454/1/5 457/1/5
f 459/1/5 456/1/5 455/1/5
f 460/1/5 456/1/5 459/1/5
f 465/1/5 462/1/5 461/1/5
f 466/1/5 462/1/5 465/1/5
f 467/1/5 464/1/5 463/1/5
f 468/1/5 464/1/5 467/1/5
f 471/1/5 470/1/5 469/1/5
f 472/1/5 470/1/5 471/1/5
f 477/1/5 474/1/5 473/1/5
f 478/1/5 474/1/5 477/1/5
f 479/1/5 476/1/5 475/1/5
f 480/1/5 476/1/5 479/1/5
f 483/1/5 482/1/5 481/1/5
f 484/1/5 482/1/5 483/1/5
f 487/1/5 486/1/5 485/1/5
f 488/1/5 486/1/5 487/1/5
f 491/1/5 490/1/5 489/1/5
f 492/1/5 490/1/5 491/1/5
f 497/1/5 494/1/5 493/1/5
f 498/1/5 494/1/5 497/1/5
f 499/1/5 496/1/5 495/1/5
f 500/1/5 496/1/5 499/1/5
f 503/1/5 502/1/5 501/1/5
f 504/1/5 502/1/5 503/1/5
f 509/1/5 506/1/5 505/1/5
f 510/1/5 506/1/5 509/1/5
f 511/1/5 508/1/5 507/1/5
f 512/1/5 508/1/5 511/1/5
f 515/1/5 514/1/5 513/1/5
f 516/1/5 514/1/5 515/1/5
f 517/1/6 518/1/6 521/1/6
f 521/1/6 518/1/6 522/1/6
f 519/1/6 520/1/6 523/1/6
f 523/1/6 520/1/6 524/1/6
f 525/1/6 526/1/6 529/1/6
f 529/1/6 526/1/6 530/1/6
f 527/1/6 528/1/6 531/1/6
f 531/1/6 528/1/6 532/1/6
f 533/1/6 534/1/6 537/1/6
f 537/1/6 534/1/6 538/1/6
f 535/1/6 536/1/6 539/1/6
f 539/1/6 536/1/6 540/1/6
f 541/1/6 542/1/6 545/1/6
f 545/1/6 542/1/6 546/1/6
f 543/1/6 544/1/6 547/1/6
f 547/1/6 544/1/6 548/1/6
f 549/1/6 550/1/6 553/1/6
f 553/1/6 550/1/6 554/1/6
f 551/1/6 552/1/6 555/1/6
f 555/1/6 552/1/6 556/1/6
f 557/1/6 558/1/6 559/1/6
f 559/1/6 558/1/6 560/1/6
f 561/1/6 562/1/6 563/1/6
f 563/1/6 562/1/6 564/1/6
f 565/2/6 566/2/6 567/2/6
f 567/2/6 566/2/6 568/2/6
f 569/1/6 570/1/6 573/1/6
f 573/1/6 570/1/6 574/1/6
f 571/1/6 572/1/6 575/1/6
f 575/1/6 572/1/6 576/1/6
f 577/2/6 578/2/6 579/2/6
f 579/2/6 578/2/6 580/2/6
f 581/1/6 582/1/6 583/1/6
f 583/1/6 582/1/6 584/1/6
f 585/2/6 586/2/6 587/2/6
f 587/2/6 586/2/6 588/2/6
f 589/2/6 590/2/6 593/2/6
f 593/2/6 590/2/6 594/2/6
f 591/2/6 592/2/6 595/2/6
f 595/2/6 592/2/6 596/2/6
f 597/1/6 598/1/6 599/1/6
f 599/1/6 598/1/6 600/1/6
f 601/2/6 602/2/6 603/2/6
f 603/2/6 602/2/6 604/2/6
f 605/1/6 606/1/6 607/1/6
f 607/1/6 606/1/6 608/1/6
f 609/1/6 610/1/6 611/1/6
f 611/1/6 610/1/6 612/1/6
