# MagicaVoxel @ Ephtracy

# group
o 

# material
mtllib grass-montain3.mtl
usemtl palette

# normals
vn -1 0 0
vn 1 0 0
vn 0 0 1
vn 0 0 -1
vn 0 -1 0
vn 0 1 0

# texcoords
vt 0.974609 0.5
vt 0.978516 0.5

# verts
v -0.5 0 0.3
v -0.5 0 0.2
v -0.5 0.2 0.3
v -0.5 0.2 0.2
v -0.4 0 0.1
v -0.4 0 1.49012e-008
v -0.4 0 -0.1
v -0.4 0 -0.2
v -0.4 0.1 0.1
v -0.4 0.1 1.49012e-008
v -0.4 0.3 -0.1
v -0.4 0.3 -0.2
v -0.3 0 0.4
v -0.3 0 0.3
v -0.3 0 0.2
v -0.3 0 0.1
v -0.3 0 1.49012e-008
v -0.3 0 -0.1
v -0.3 0 -0.2
v -0.3 0 -0.3
v -0.3 0.1 0.4
v -0.3 0.1 0.3
v -0.3 0.1 0.1
v -0.3 0.1 1.49012e-008
v -0.3 0.1 -0.2
v -0.3 0.1 -0.3
v -0.3 0.2 0.2
v -0.3 0.2 -0.1
v -0.3 0.2 -0.2
v -0.3 0.2 -0.3
v -0.3 0.3 -0.1
v -0.3 0.3 -0.2
v -0.3 0.4 -0.1
v -0.3 0.4 -0.3
v -0.2 0 0.3
v -0.2 0 0.2
v -0.2 0 -0.3
v -0.2 0 -0.4
v -0.2 0.1 0.3
v -0.2 0.1 -0.3
v -0.2 0.1 -0.4
v -0.2 0.2 0.2
v -0.2 0.2 -0.1
v -0.2 0.3 0.3
v -0.2 0.3 0.2
v -0.2 0.3 -0.1
v -1.49012e-008 0.2 0.3
v -1.49012e-008 0.2 0.2
v -1.49012e-008 0.3 0.2
v -1.49012e-008 0.3 0.1
v -1.49012e-008 0.4 0.3
v -1.49012e-008 0.4 0.2
v -1.49012e-008 0.4 0.1
v -1.49012e-008 0.6 0.2
v -1.49012e-008 0.6 0.1
v 0.1 0 0.5
v 0.1 0 0.4
v 0.1 0.1 0.5
v 0.1 0.1 0.4
v 0.2 0 -0.2
v 0.2 0 -0.3
v 0.2 0.1 -0.2
v 0.2 0.1 -0.3
v 0.3 0 0.2
v 0.3 0 0.1
v 0.3 0.2 0.2
v 0.3 0.2 0.1
v 0.4 0 -0.4
v 0.4 0 -0.5
v 0.4 0.2 -0.4
v 0.4 0.2 -0.5
v -0.4 0 0.3
v -0.4 0 0.2
v -0.4 0.2 0.3
v -0.4 0.2 0.2
v -0.2 0 0.4
v -0.2 0 0.3
v -0.2 0.1 0.4
v -0.2 0.1 0.3
v -0.1 0 0.3
v -0.1 0 0.2
v -0.1 0 -0.3
v -0.1 0 -0.4
v -0.1 0.1 -0.3
v -0.1 0.1 -0.4
v -0.1 0.2 -0.2
v -0.1 0.2 -0.3
v -0.1 0.3 0.3
v -0.1 0.3 0.2
v -0.1 0.3 -0.1
v -0.1 0.3 -0.2
v -0.1 0.4 -0.1
v -0.1 0.4 -0.3
v 0.1 0 0.2
v 0.1 0 1.49012e-008
v 0.1 0 -0.1
v 0.1 0 -0.3
v 0.1 0.1 -0.2
v 0.1 0.1 -0.3
v 0.1 0.2 0.2
v 0.1 0.2 0.1
v 0.1 0.3 0.1
v 0.1 0.3 1.49012e-008
v 0.1 0.3 -0.1
v 0.1 0.3 -0.2
v 0.1 0.4 0.2
v 0.1 0.4 0.1
v 0.1 0.6 0.2
v 0.1 0.6 0.1
v 0.2 0 0.5
v 0.2 0 0.4
v 0.2 0 1.49012e-008
v 0.2 0 -0.1
v 0.2 0.1 0.5
v 0.2 0.1 0.4
v 0.2 0.2 0.3
v 0.2 0.2 0.1
v 0.2 0.3 1.49012e-008
v 0.2 0.3 -0.1
v 0.2 0.4 0.3
v 0.2 0.4 0.1
v 0.3 0 -0.2
v 0.3 0 -0.3
v 0.3 0.1 -0.2
v 0.3 0.1 -0.3
v 0.4 0 0.2
v 0.4 0 0.1
v 0.4 0.2 0.2
v 0.4 0.2 0.1
v 0.5 0 -0.4
v 0.5 0 -0.5
v 0.5 0.2 -0.4
v 0.5 0.2 -0.5
v 0.1 0 0.5
v 0.1 0.1 0.5
v 0.2 0 0.5
v 0.2 0.1 0.5
v -0.3 0 0.4
v -0.3 0.1 0.4
v -0.2 0 0.4
v -0.2 0.1 0.4
v -0.5 0 0.3
v -0.5 0.2 0.3
v -0.4 0 0.3
v -0.4 0.2 0.3
v -0.2 0 0.3
v -0.2 0.1 0.3
v -0.2 0.3 0.3
v -0.1 0 0.3
v -0.1 0.3 0.3
v -1.49012e-008 0.2 0.3
v -1.49012e-008 0.4 0.3
v 0.2 0.2 0.3
v 0.2 0.4 0.3
v -0.3 0 0.2
v -0.3 0.2 0.2
v -0.2 0 0.2
v -0.2 0.2 0.2
v -0.1 0 0.2
v -0.1 0.3 0.2
v -1.49012e-008 0.2 0.2
v -1.49012e-008 0.3 0.2
v -1.49012e-008 0.4 0.2
v -1.49012e-008 0.6 0.2
v 0.1 0 0.2
v 0.1 0.2 0.2
v 0.1 0.4 0.2
v 0.1 0.6 0.2
v 0.3 0 0.2
v 0.3 0.2 0.2
v 0.4 0 0.2
v 0.4 0.2 0.2
v -0.4 0 0.1
v -0.4 0.1 0.1
v -0.3 0 0.1
v -0.3 0.1 0.1
v 0.1 0 1.49012e-008
v 0.1 0.3 1.49012e-008
v 0.2 0 1.49012e-008
v 0.2 0.3 1.49012e-008
v -0.4 0 -0.1
v -0.4 0.3 -0.1
v -0.3 0 -0.1
v -0.3 0.2 -0.1
v -0.3 0.3 -0.1
v -0.3 0.4 -0.1
v -0.2 0.2 -0.1
v -0.2 0.3 -0.1
v -0.1 0.3 -0.1
v -0.1 0.4 -0.1
v 0.2 0 -0.2
v 0.2 0.1 -0.2
v 0.3 0 -0.2
v 0.3 0.1 -0.2
v 0.4 0 -0.4
v 0.4 0.2 -0.4
v 0.5 0 -0.4
v 0.5 0.2 -0.4
v 0.1 0 0.4
v 0.1 0.1 0.4
v 0.2 0 0.4
v 0.2 0.1 0.4
v -0.3 0 0.3
v -0.3 0.1 0.3
v -0.2 0 0.3
v -0.2 0.1 0.3
v -0.5 0 0.2
v -0.5 0.2 0.2
v -0.4 0 0.2
v -0.4 0.2 0.2
v -1.49012e-008 0.3 0.1
v -1.49012e-008 0.4 0.1
v -1.49012e-008 0.6 0.1
v 0.1 0.2 0.1
v 0.1 0.3 0.1
v 0.1 0.4 0.1
v 0.1 0.6 0.1
v 0.2 0.2 0.1
v 0.2 0.4 0.1
v 0.3 0 0.1
v 0.3 0.2 0.1
v 0.4 0 0.1
v 0.4 0.2 0.1
v -0.4 0 1.49012e-008
v -0.4 0.1 1.49012e-008
v -0.3 0 1.49012e-008
v -0.3 0.1 1.49012e-008
v 0.1 0 -0.1
v 0.1 0.3 -0.1
v 0.2 0 -0.1
v 0.2 0.3 -0.1
v -0.4 0 -0.2
v -0.4 0.3 -0.2
v -0.3 0 -0.2
v -0.3 0.1 -0.2
v -0.3 0.2 -0.2
v -0.3 0.3 -0.2
v -0.1 0.2 -0.2
v -0.1 0.3 -0.2
v 0.1 0.1 -0.2
v 0.1 0.3 -0.2
v -0.3 0 -0.3
v -0.3 0.1 -0.3
v -0.3 0.2 -0.3
v -0.3 0.4 -0.3
v -0.2 0 -0.3
v -0.2 0.1 -0.3
v -0.1 0 -0.3
v -0.1 0.1 -0.3
v -0.1 0.2 -0.3
v -0.1 0.4 -0.3
v 0.1 0 -0.3
v 0.1 0.1 -0.3
v 0.2 0 -0.3
v 0.2 0.1 -0.3
v 0.3 0 -0.3
v 0.3 0.1 -0.3
v -0.2 0 -0.4
v -0.2 0.1 -0.4
v -0.1 0 -0.4
v -0.1 0.1 -0.4
v 0.4 0 -0.5
v 0.4 0.2 -0.5
v 0.5 0 -0.5
v 0.5 0.2 -0.5
v 0.1 0 0.5
v 0.2 0 0.5
v -0.3 0 0.4
v -0.2 0 0.4
v 0.1 0 0.4
v 0.2 0 0.4
v -0.5 0 0.3
v -0.4 0 0.3
v -0.3 0 0.3
v -0.2 0 0.3
v -0.1 0 0.3
v -0.5 0 0.2
v -0.4 0 0.2
v -0.3 0 0.2
v -0.2 0 0.2
v -0.1 0 0.2
v 0.1 0 0.2
v 0.3 0 0.2
v 0.4 0 0.2
v -0.4 0 0.1
v -0.3 0 0.1
v 0.3 0 0.1
v 0.4 0 0.1
v -0.4 0 1.49012e-008
v -0.3 0 1.49012e-008
v 0.1 0 1.49012e-008
v 0.2 0 1.49012e-008
v -0.4 0 -0.1
v -0.3 0 -0.1
v 0.1 0 -0.1
v 0.2 0 -0.1
v -0.4 0 -0.2
v -0.3 0 -0.2
v 0.2 0 -0.2
v 0.3 0 -0.2
v -0.3 0 -0.3
v -0.2 0 -0.3
v -0.1 0 -0.3
v 0.1 0 -0.3
v 0.2 0 -0.3
v 0.3 0 -0.3
v -0.2 0 -0.4
v -0.1 0 -0.4
v 0.4 0 -0.4
v 0.5 0 -0.4
v 0.4 0 -0.5
v 0.5 0 -0.5
v -1.49012e-008 0.2 0.3
v 0.2 0.2 0.3
v -1.49012e-008 0.2 0.2
v 0.1 0.2 0.2
v 0.1 0.2 0.1
v 0.2 0.2 0.1
v -0.3 0.2 -0.2
v -0.1 0.2 -0.2
v -0.3 0.2 -0.3
v -0.1 0.2 -0.3
v 0.1 0.1 0.5
v 0.2 0.1 0.5
v -0.3 0.1 0.4
v -0.2 0.1 0.4
v 0.1 0.1 0.4
v 0.2 0.1 0.4
v -0.3 0.1 0.3
v -0.2 0.1 0.3
v -0.4 0.1 0.1
v -0.3 0.1 0.1
v -0.4 0.1 1.49012e-008
v -0.3 0.1 1.49012e-008
v -0.3 0.1 -0.2
v 0.1 0.1 -0.2
v 0.2 0.1 -0.2
v 0.3 0.1 -0.2
v -0.3 0.1 -0.3
v -0.2 0.1 -0.3
v -0.1 0.1 -0.3
v 0.1 0.1 -0.3
v 0.2 0.1 -0.3
v 0.3 0.1 -0.3
v -0.2 0.1 -0.4
v -0.1 0.1 -0.4
v -0.5 0.2 0.3
v -0.4 0.2 0.3
v -0.5 0.2 0.2
v -0.4 0.2 0.2
v -0.3 0.2 0.2
v -0.2 0.2 0.2
v 0.3 0.2 0.2
v 0.4 0.2 0.2
v 0.3 0.2 0.1
v 0.4 0.2 0.1
v -0.3 0.2 -0.1
v -0.2 0.2 -0.1
v 0.4 0.2 -0.4
v 0.5 0.2 -0.4
v 0.4 0.2 -0.5
v 0.5 0.2 -0.5
v -0.2 0.3 0.3
v -0.1 0.3 0.3
v -0.2 0.3 0.2
v -0.1 0.3 0.2
v -1.49012e-008 0.3 0.2
v -1.49012e-008 0.3 0.1
v 0.1 0.3 0.1
v 0.1 0.3 1.49012e-008
v 0.2 0.3 1.49012e-008
v -0.4 0.3 -0.1
v -0.3 0.3 -0.1
v -0.2 0.3 -0.1
v -0.1 0.3 -0.1
v 0.1 0.3 -0.1
v 0.2 0.3 -0.1
v -0.4 0.3 -0.2
v -0.3 0.3 -0.2
v -0.1 0.3 -0.2
v 0.1 0.3 -0.2
v -1.49012e-008 0.4 0.3
v 0.2 0.4 0.3
v -1.49012e-008 0.4 0.2
v 0.1 0.4 0.2
v 0.1 0.4 0.1
v 0.2 0.4 0.1
v -0.3 0.4 -0.1
v -0.1 0.4 -0.1
v -0.3 0.4 -0.3
v -0.1 0.4 -0.3
v -1.49012e-008 0.6 0.2
v 0.1 0.6 0.2
v -1.49012e-008 0.6 0.1
v 0.1 0.6 0.1

# faces
f 3/1/1 2/1/1 1/1/1
f 4/1/1 2/1/1 3/1/1
f 9/1/1 6/1/1 5/1/1
f 10/1/1 6/1/1 9/1/1
f 11/1/1 8/1/1 7/1/1
f 12/1/1 8/1/1 11/1/1
f 21/1/1 14/1/1 13/1/1
f 22/1/1 14/1/1 21/1/1
f 23/2/1 16/2/1 15/2/1
f 24/2/1 18/2/1 17/2/1
f 25/2/1 20/2/1 19/2/1
f 26/2/1 20/2/1 25/2/1
f 27/2/1 24/2/1 23/2/1
f 27/2/1 23/2/1 15/2/1
f 28/2/1 18/2/1 24/2/1
f 28/2/1 24/2/1 27/2/1
f 32/2/1 30/2/1 29/2/1
f 33/2/1 32/2/1 31/2/1
f 34/2/1 30/2/1 32/2/1
f 34/2/1 32/2/1 33/2/1
f 39/1/1 36/1/1 35/1/1
f 40/1/1 38/1/1 37/1/1
f 41/1/1 38/1/1 40/1/1
f 42/1/1 36/1/1 39/1/1
f 44/1/1 42/1/1 39/1/1
f 45/2/1 43/2/1 42/2/1
f 45/1/1 42/1/1 44/1/1
f 46/2/1 43/2/1 45/2/1
f 49/2/1 48/2/1 47/2/1
f 51/2/1 49/2/1 47/2/1
f 51/2/1 50/2/1 49/2/1
f 52/2/1 50/2/1 51/2/1
f 53/2/1 50/2/1 52/2/1
f 54/1/1 53/1/1 52/1/1
f 55/1/1 53/1/1 54/1/1
f 58/1/1 57/1/1 56/1/1
f 59/1/1 57/1/1 58/1/1
f 62/1/1 61/1/1 60/1/1
f 63/1/1 61/1/1 62/1/1
f 66/1/1 65/1/1 64/1/1
f 67/1/1 65/1/1 66/1/1
f 70/1/1 69/1/1 68/1/1
f 71/1/1 69/1/1 70/1/1
f 72/1/2 73/1/2 74/1/2
f 74/1/2 73/1/2 75/1/2
f 76/1/2 77/1/2 78/1/2
f 78/1/2 77/1/2 79/1/2
f 82/1/2 83/1/2 84/1/2
f 84/1/2 83/1/2 85/1/2
f 80/1/2 81/1/2 88/1/2
f 88/1/2 81/1/2 89/1/2
f 86/2/2 87/2/2 91/2/2
f 90/2/2 91/2/2 92/2/2
f 91/2/2 87/2/2 93/2/2
f 92/2/2 91/2/2 93/2/2
f 96/2/2 97/2/2 98/2/2
f 98/2/2 97/2/2 99/2/2
f 94/2/2 95/2/2 100/2/2
f 100/2/2 95/2/2 101/2/2
f 101/2/2 95/2/2 102/2/2
f 102/2/2 95/2/2 103/2/2
f 96/2/2 98/2/2 104/2/2
f 104/2/2 98/2/2 105/2/2
f 106/1/2 107/1/2 108/1/2
f 108/1/2 107/1/2 109/1/2
f 110/1/2 111/1/2 114/1/2
f 114/1/2 111/1/2 115/1/2
f 112/1/2 113/1/2 118/1/2
f 118/1/2 113/1/2 119/1/2
f 116/2/2 117/2/2 120/2/2
f 120/2/2 117/2/2 121/2/2
f 122/1/2 123/1/2 124/1/2
f 124/1/2 123/1/2 125/1/2
f 126/1/2 127/1/2 128/1/2
f 128/1/2 127/1/2 129/1/2
f 130/1/2 131/1/2 132/1/2
f 132/1/2 131/1/2 133/1/2
f 136/1/3 135/1/3 134/1/3
f 137/1/3 135/1/3 136/1/3
f 140/1/3 139/1/3 138/1/3
f 141/1/3 139/1/3 140/1/3
f 144/1/3 143/1/3 142/1/3
f 145/1/3 143/1/3 144/1/3
f 149/1/3 147/1/3 146/1/3
f 149/1/3 148/1/3 147/1/3
f 150/1/3 148/1/3 149/1/3
f 153/2/3 152/2/3 151/2/3
f 154/2/3 152/2/3 153/2/3
f 157/2/3 156/2/3 155/2/3
f 158/2/3 156/2/3 157/2/3
f 161/2/3 160/2/3 159/2/3
f 162/2/3 160/2/3 161/2/3
f 165/2/3 161/2/3 159/2/3
f 166/2/3 161/2/3 165/2/3
f 167/1/3 164/1/3 163/1/3
f 168/1/3 164/1/3 167/1/3
f 171/1/3 170/1/3 169/1/3
f 172/1/3 170/1/3 171/1/3
f 175/1/3 174/1/3 173/1/3
f 176/1/3 174/1/3 175/1/3
f 179/1/3 178/1/3 177/1/3
f 180/1/3 178/1/3 179/1/3
f 183/1/3 182/1/3 181/1/3
f 184/1/3 182/1/3 183/1/3
f 185/1/3 182/1/3 184/1/3
f 187/2/3 186/2/3 185/2/3
f 187/2/3 185/2/3 184/2/3
f 188/2/3 186/2/3 187/2/3
f 189/2/3 186/2/3 188/2/3
f 190/2/3 186/2/3 189/2/3
f 193/1/3 192/1/3 191/1/3
f 194/1/3 192/1/3 193/1/3
f 197/1/3 196/1/3 195/1/3
f 198/1/3 196/1/3 197/1/3
f 199/1/4 200/1/4 201/1/4
f 201/1/4 200/1/4 202/1/4
f 203/1/4 204/1/4 205/1/4
f 205/1/4 204/1/4 206/1/4
f 207/1/4 208/1/4 209/1/4
f 209/1/4 208/1/4 210/1/4
f 211/2/4 212/2/4 215/2/4
f 212/1/4 213/1/4 216/1/4
f 215/2/4 212/2/4 216/2/4
f 216/1/4 213/1/4 217/1/4
f 214/2/4 215/2/4 218/2/4
f 215/2/4 216/2/4 218/2/4
f 218/2/4 216/2/4 219/2/4
f 220/1/4 221/1/4 222/1/4
f 222/1/4 221/1/4 223/1/4
f 224/1/4 225/1/4 226/1/4
f 226/1/4 225/1/4 227/1/4
f 228/1/4 229/1/4 230/1/4
f 230/1/4 229/1/4 231/1/4
f 232/1/4 233/1/4 234/1/4
f 234/1/4 233/1/4 235/1/4
f 235/1/4 233/1/4 236/1/4
f 236/1/4 233/1/4 237/1/4
f 235/2/4 236/2/4 238/2/4
f 235/2/4 238/2/4 240/2/4
f 238/2/4 239/2/4 240/2/4
f 240/2/4 239/2/4 241/2/4
f 242/2/4 243/2/4 246/2/4
f 246/2/4 243/2/4 247/2/4
f 244/2/4 245/2/4 250/2/4
f 250/2/4 245/2/4 251/2/4
f 248/2/4 249/2/4 252/2/4
f 252/2/4 249/2/4 253/2/4
f 254/1/4 255/1/4 256/1/4
f 256/1/4 255/1/4 257/1/4
f 258/1/4 259/1/4 260/1/4
f 260/1/4 259/1/4 261/1/4
f 262/1/4 263/1/4 264/1/4
f 264/1/4 263/1/4 265/1/4
f 270/1/5 267/1/5 266/1/5
f 271/1/5 267/1/5 270/1/5
f 274/1/5 269/1/5 268/1/5
f 275/1/5 269/1/5 274/1/5
f 277/1/5 273/1/5 272/1/5
f 278/1/5 273/1/5 277/1/5
f 280/1/5 276/1/5 275/1/5
f 281/1/5 276/1/5 280/1/5
f 286/2/5 282/2/5 281/2/5
f 286/2/5 281/2/5 280/2/5
f 286/2/5 280/2/5 279/2/5
f 287/1/5 284/1/5 283/1/5
f 288/1/5 284/1/5 287/1/5
f 289/1/5 286/1/5 285/1/5
f 290/2/5 282/2/5 286/2/5
f 290/1/5 286/1/5 289/1/5
f 291/2/5 282/2/5 290/2/5
f 294/2/5 291/2/5 290/2/5
f 295/1/5 292/1/5 291/1/5
f 295/2/5 291/2/5 294/2/5
f 296/1/5 292/1/5 295/1/5
f 297/1/5 294/1/5 293/1/5
f 298/2/5 295/2/5 294/2/5
f 298/1/5 294/1/5 297/1/5
f 301/2/5 295/2/5 298/2/5
f 302/2/5 295/2/5 301/2/5
f 303/2/5 295/2/5 302/2/5
f 304/2/5 295/2/5 303/2/5
f 305/1/5 300/1/5 299/1/5
f 306/1/5 300/1/5 305/1/5
f 307/1/5 303/1/5 302/1/5
f 308/1/5 303/1/5 307/1/5
f 311/1/5 310/1/5 309/1/5
f 312/1/5 310/1/5 311/1/5
f 315/2/5 314/2/5 313/2/5
f 316/2/5 314/2/5 315/2/5
f 317/2/5 314/2/5 316/2/5
f 318/2/5 314/2/5 317/2/5
f 321/2/5 320/2/5 319/2/5
f 322/2/5 320/2/5 321/2/5
f 323/1/6 324/1/6 327/1/6
f 327/1/6 324/1/6 328/1/6
f 325/1/6 326/1/6 329/1/6
f 329/1/6 326/1/6 330/1/6
f 331/1/6 332/1/6 333/1/6
f 333/1/6 332/1/6 334/1/6
f 335/2/6 336/2/6 339/2/6
f 339/2/6 336/2/6 340/2/6
f 340/2/6 336/2/6 341/2/6
f 341/2/6 336/2/6 342/2/6
f 337/1/6 338/1/6 343/1/6
f 343/1/6 338/1/6 344/1/6
f 340/1/6 341/1/6 345/1/6
f 345/1/6 341/1/6 346/1/6
f 347/1/6 348/1/6 349/1/6
f 349/1/6 348/1/6 350/1/6
f 353/1/6 354/1/6 355/1/6
f 355/1/6 354/1/6 356/1/6
f 351/2/6 352/2/6 357/2/6
f 357/2/6 352/2/6 358/2/6
f 359/1/6 360/1/6 361/1/6
f 361/1/6 360/1/6 362/1/6
f 363/1/6 364/1/6 365/1/6
f 365/1/6 364/1/6 366/1/6
f 365/2/6 366/2/6 368/2/6
f 366/2/6 367/2/6 368/2/6
f 368/2/6 369/2/6 370/2/6
f 365/2/6 368/2/6 374/2/6
f 368/2/6 370/2/6 374/2/6
f 374/2/6 370/2/6 375/2/6
f 370/1/6 371/1/6 376/1/6
f 375/2/6 370/2/6 376/2/6
f 376/1/6 371/1/6 377/1/6
f 372/1/6 373/1/6 378/1/6
f 378/1/6 373/1/6 379/1/6
f 375/2/6 376/2/6 380/2/6
f 380/2/6 376/2/6 381/2/6
f 382/2/6 383/2/6 384/2/6
f 384/2/6 383/2/6 385/2/6
f 385/2/6 383/2/6 386/2/6
f 386/2/6 383/2/6 387/2/6
f 388/2/6 389/2/6 390/2/6
f 390/2/6 389/2/6 391/2/6
f 392/1/6 393/1/6 394/1/6
f 394/1/6 393/1/6 395/1/6
